<?xml version="1.0" encoding="utf-8" ?>
<svg baseProfile="full" height="200mm" version="1.1" viewBox="0,0,200,200" width="200mm" xmlns="http://www.w3.org/2000/svg" xmlns:ev="http://www.w3.org/2001/xml-events" xmlns:xlink="http://www.w3.org/1999/xlink"><defs /><rect fill="#1a1a1a" height="200" width="200" x="0" y="0" /><text alignment-baseline="middle" fill="#e1ed5e" style="dominant-baseline: central; font-size:9.0px; font-family:Arial;" text-anchor="middle" x="100.0" y="100.0">2026</text><line stroke="#e1ed5e" stroke-width="0.3" x1="100.0" x2="100.0" y1="15.0" y2="10.0" /><path d="M 100.0 14.0 a86.0,86.0 0 0,1 42.46469731375804,11.215312516191453" fill="none" id="id37" stroke="none" /><text fill="#e1ed5e" style="font-size:6.75px; font-family:Arial;" text-anchor="middle"><textPath startOffset="22.20632615414155" xlink:href="#id37">January</textPath></text><path d="M 101.08401301168833 79.027996857942 l 3.1904250995124035 -61.723987157003236 a82.80638642465274,82.80638642465274 0 0,0 1.422842229546051,0.08582972889980292 l -4.252429377898067 61.65992415872313" fill="red" stroke="none" /><path d="M 101.44485096284872 79.0497635885617 l 4.272720451957566 -61.95414329240482 a83.10130442395237,83.10130442395237 0 0,0 1.426215494818053,0.11070177157412671 l -5.3385261361379595 61.871416258642235" fill="red" stroke="none" /><path d="M 103.95276090670814 79.375362276772 l 11.705388341058153 -61.07614390091612 a83.18771156764328,83.18771156764328 0 0,0 1.4040247285301408,0.281634152164271 l -12.75497947905542 60.86560579267464" fill="red" stroke="none" /><path d="M 104.307194497241 79.44645832069477 l 12.666492700543174 -60.44335490723544 a82.75628866581067,82.75628866581067 0 0,0 1.3917135935419984,0.3041746872705849 l -13.7050490182387 60.21636672186899" fill="red" stroke="none" /><path d="M 106.40334571778207 80.00007090966166 l 19.045599653881748 -59.48619039931263 a83.46072137270923,83.46072137270923 0 0,0 1.3644523483471658,0.44983848680069166 l -20.06673482447133 59.149538188252706" fill="red" stroke="none" /><line stroke="#e1ed5e" stroke-width="0.3" x1="143.23703022742887" x2="145.7803849466894" y1="26.81831364943548" y2="22.513508569990506" /><path d="M 143.74570117128098 25.957352633546492 a86.0,86.0 0 0,1 28.547481713284135,27.462654790039103" fill="none" id="id38" stroke="none" /><text fill="#e1ed5e" style="font-size:6.75px; font-family:Arial;" text-anchor="middle"><textPath startOffset="19.985693538727396" xlink:href="#id38">February</textPath></text><path d="M 116.82858285166822 87.43820079747576 l 49.99846708732142 -37.32166335816498 a83.39193270689856,83.39193270689856 0 0,0 0.8487606587719986,1.1577085847085926 l -50.63349035860705 36.455492329784896" fill="red" stroke="none" /><path d="M 117.04232023915458 87.72973835380427 l 50.56759484583454 -36.408048368417994 a83.31073450449398,83.31073450449398 0 0,0 0.8278999488551003,1.171005764934301 l -51.18680741449353 35.532216103151896" fill="red" stroke="none" /><path d="M 117.2510076193507 88.02491185347247 l 51.39232637855913 -35.67488068047827 a83.56091689039337,83.56091689039337 0 0,0 0.8100456335796378,1.1886420128969328 l -51.99879647780751 34.78496064431093" fill="red" stroke="none" /><path d="M 117.45458315368197 88.32363383020206 l 51.88406422452844 -34.70820969649527 a83.42287994630559,83.42287994630559 0 0,0 0.7881609556894724,1.2004232081301285 l -52.47382181557584 33.80996842438746" fill="red" stroke="none" /><line stroke="#e1ed5e" stroke-width="0.3" x1="172.23445277983987" x2="176.4835382374775" y1="55.19839476539836" y2="52.563006222186495" /><path d="M 173.08426987136738 54.67131705675599 a86.0,86.0 0 0,1 12.851231095245387,41.99856678651699" fill="none" id="id39" stroke="none" /><text fill="#e1ed5e" style="font-size:6.75px; font-family:Arial;" text-anchor="middle"><textPath startOffset="22.20632615414155" xlink:href="#id39">March</textPath></text><path d="M 118.03404312379186 89.2402003453031 l 53.432720510237985 -31.880004042858804 a83.22049725691608,83.22049725691608 0 0,0 0.7233855552389854,1.2365004027763808 l -53.9735657399473 30.955524227728528" fill="red" stroke="none" /><path d="M 119.34039704204932 91.81776055985345 l 57.27366118911651 -24.23046478540771 a83.1883243842652,83.1883243842652 0 0,0 0.546580222347844,1.3235873627696462 l -57.68226309835055 23.241002852184764" fill="red" stroke="none" /><path d="M 120.96714384426684 98.82574320788733 l 62.32643814457685 -3.4905680937306784 a83.42410557954943,83.42410557954943 0 0,0 0.06795644918161549,1.434453236413597 l -62.37728820199196 2.4172037506940818" fill="red" stroke="none" /><line stroke="#e1ed5e" stroke-width="0.3" x1="184.98032266829074" x2="189.97916517819016" y1="98.17113171792111" y2="98.06355123074" /><path d="M 185.9800911702706 98.14961562048488 a86.0,86.0 0 0,1 -9.607161424134198,41.387399972396054" fill="none" id="id40" stroke="none" /><text fill="#e1ed5e" style="font-size:6.75px; font-family:Arial;" text-anchor="middle"><textPath startOffset="21.466115282336823" xlink:href="#id40">April</textPath></text><path d="M 120.5718875245553 104.21870165774334 l 60.599060764524026 12.427122100479844 a82.86016108322633,82.86016108322633 0 0,0 -0.29855684475284816,1.3947581839938412 l -60.37616988104673 -13.468394103889855" fill="red" stroke="none" /><path d="M 120.49622156327973 104.57218783832717 l 59.48213675446472 13.268957960218222 a81.94415343760943,81.94415343760943 0 0,0 -0.3189556536804828,1.3740526082105056 l -59.244920534853684 -14.290879225777292" fill="red" stroke="none" /><path d="M 119.67450827220406 107.3425965602758 l 59.02352481661219 22.027789680827375 a84.0,84.0 0 0,0 -0.517222881625973,1.3503057326674246 l -58.635607655392704 -23.040518980327946" fill="red" stroke="none" /><line stroke="#e1ed5e" stroke-width="0.3" x1="174.80103733775053" x2="179.2010983576182" y1="140.37084112569926" y2="142.7455964860345" /><path d="M 175.68104954172406 140.8457921977663 a86.0,86.0 0 0,1 -30.038265399797805,32.042727171017184" fill="none" id="id41" stroke="none" /><text fill="#e1ed5e" style="font-size:6.75px; font-family:Arial;" text-anchor="middle"><textPath startOffset="22.206326154141568" xlink:href="#id41">May</textPath></text><line stroke="#e1ed5e" stroke-width="0.3" x1="143.8653032363475" x2="146.44561519142675" y1="172.8068346515853" y2="177.08958963109032" /><path d="M 144.38136562736335 173.6633856474863 a86.0,86.0 0 0,1 -40.68145358897372,12.25698825130547" fill="none" id="id42" stroke="none" /><text fill="#e1ed5e" style="font-size:6.75px; font-family:Arial;" text-anchor="middle"><textPath startOffset="21.466115282336833" xlink:href="#id42">June</textPath></text><line stroke="#e1ed5e" stroke-width="0.3" x1="102.19456741930631" x2="102.32365962044197" y1="184.97166512339345" y2="189.96999836594603" /><path d="M 102.22038585953345 185.97133177190398 a86.0,86.0 0 0,1 -42.740103519485714,-10.115201625700543" fill="none" id="id43" stroke="none" /><text fill="#e1ed5e" style="font-size:6.75px; font-family:Arial;" text-anchor="middle"><textPath startOffset="22.20632615414155" xlink:href="#id43">July</textPath></text><line stroke="#e1ed5e" stroke-width="0.3" x1="58.666819895761336" x2="56.23545636021788" y1="174.27360380694188" y2="178.64263932499728" /><path d="M 58.180547188652646 175.14741091055294 a86.0,86.0 0 0,1 -31.652253787137756,-30.449443065178592" fill="none" id="id44" stroke="none" /><text fill="#e1ed5e" style="font-size:6.75px; font-family:Arial;" text-anchor="middle"><textPath startOffset="22.20632615414155" xlink:href="#id44">August</textPath></text><line stroke="#e1ed5e" stroke-width="0.3" x1="26.63291911575756" x2="22.317208475507996" y1="142.92168965132927" y2="145.44649492493687" /><path d="M 25.769776987707644 143.4266507060508 a86.0,86.0 0 0,1 -11.730757126820373,-40.83630448921669" fill="none" id="id45" stroke="none" /><text fill="#e1ed5e" style="font-size:6.75px; font-family:Arial;" text-anchor="middle"><textPath startOffset="21.46611528233685" xlink:href="#id45">September</textPath></text><line stroke="#e1ed5e" stroke-width="0.3" x1="15.007084014347285" x2="10.007500721073583" y1="101.09737516637583" y2="101.16192664675087" /><path d="M 14.007167355692545 101.11028546245083 a86.0,86.0 0 0,1 10.666146001902534,-42.60595125391555" fill="none" id="id46" stroke="none" /><text fill="#e1ed5e" style="font-size:6.75px; font-family:Arial;" text-anchor="middle"><textPath startOffset="22.20632615414155" xlink:href="#id46">October</textPath></text><line stroke="#e1ed5e" stroke-width="0.3" x1="26.266209847984243" x2="21.928928074336255" y1="57.711370442889674" y2="55.22380399835377" /><path d="M 25.398753493254645 57.213857153982495 a86.0,86.0 0 0,1 29.58750427330803,-30.492523968695096" fill="none" id="id47" stroke="none" /><text fill="#e1ed5e" style="font-size:6.75px; font-family:Arial;" text-anchor="middle"><textPath startOffset="21.46611528233685" xlink:href="#id47">November</textPath></text><line stroke="#e1ed5e" stroke-width="0.3" x1="56.762969772571076" x2="54.21961505331055" y1="26.818313649435495" y2="22.513508569990535" /><path d="M 56.25429882871897 25.957352633546506 a86.0,86.0 0 0,1 42.265352541879196,-11.944610805530505" fill="none" id="id48" stroke="none" /><text fill="#e1ed5e" style="font-size:6.75px; font-family:Arial;" text-anchor="middle"><textPath startOffset="22.20632615414155" xlink:href="#id48">December</textPath></text></svg>