<?xml version="1.0" encoding="utf-8" ?>
<svg baseProfile="full" height="200mm" version="1.1" viewBox="0,0,200,200" width="200mm" xmlns="http://www.w3.org/2000/svg" xmlns:ev="http://www.w3.org/2001/xml-events" xmlns:xlink="http://www.w3.org/1999/xlink"><defs /><rect fill="#1a1a1a" height="200" width="200" x="0" y="0" /><text alignment-baseline="middle" fill="#e1ed5e" style="dominant-baseline: central; font-size:9.0px; font-family:Arial;" text-anchor="middle" x="100.0" y="100.0">2023</text><line stroke="#e1ed5e" stroke-width="0.3" x1="100.0" x2="100.0" y1="15.0" y2="10.0" /><path d="M 100.0 14.0 a86.0,86.0 0 0,1 42.46469731375804,11.215312516191453" fill="none" id="id1" stroke="none" /><text fill="#e1ed5e" style="font-size:6.75px; font-family:Arial;" text-anchor="middle"><textPath startOffset="22.20632615414155" xlink:href="#id1">January</textPath></text><line stroke="#e1ed5e" stroke-width="0.3" x1="143.23703022742887" x2="145.7803849466894" y1="26.81831364943548" y2="22.513508569990506" /><path d="M 143.74570117128098 25.957352633546492 a86.0,86.0 0 0,1 28.547481713284135,27.462654790039103" fill="none" id="id2" stroke="none" /><text fill="#e1ed5e" style="font-size:6.75px; font-family:Arial;" text-anchor="middle"><textPath startOffset="19.985693538727396" xlink:href="#id2">February</textPath></text><line stroke="#e1ed5e" stroke-width="0.3" x1="172.23445277983987" x2="176.4835382374775" y1="55.19839476539836" y2="52.563006222186495" /><path d="M 173.08426987136738 54.67131705675599 a86.0,86.0 0 0,1 12.851231095245387,41.99856678651699" fill="none" id="id3" stroke="none" /><text fill="#e1ed5e" style="font-size:6.75px; font-family:Arial;" text-anchor="middle"><textPath startOffset="22.20632615414155" xlink:href="#id3">March</textPath></text><path d="M 120.18372546131832 94.20196356495316 l 14.311150420532737 -4.11106322887257 a35.88992502435464,35.88992502435464 0 0,0 0.16545807360661297,0.5952407241487628 l -14.379795264705713 3.864111201304856" fill="#ff9b0e" stroke="none" /><path d="M 120.45610955862082 95.25157060432595 l 14.451906767664306 -3.354687689878831 a35.83615646715435,35.83615646715435 0 0,0 0.13430984105896565,0.6020846819540618 l -14.507510995725308 3.1054248383748053" fill="#ff9a0e" stroke="none" /><path d="M 120.6074358757038 95.95851677861258 l 29.525177195143968 -5.79041026561437 a51.08762103338816,51.08762103338816 0 0,0 0.1618121966763457,0.8644072249260712 l -29.620475115730173 5.281324963225736" fill="#a0ff22" stroke="none" /><path d="M 120.83666639777658 97.38593545837742 l 44.06434094491262 -5.528093074732685 a65.40975068554664,65.40975068554664 0 0,0 0.13053807435021514,1.1183705027740847 l -44.152969372266426 4.768778833633748" fill="#35ff62" stroke="none" /><line stroke="#e1ed5e" stroke-width="0.3" x1="184.98032266829074" x2="189.97916517819016" y1="98.17113171792111" y2="98.06355123074" /><path d="M 185.9800911702706 98.14961562048488 a86.0,86.0 0 0,1 -9.607161424134198,41.387399972396054" fill="none" id="id4" stroke="none" /><text fill="#e1ed5e" style="font-size:6.75px; font-family:Arial;" text-anchor="middle"><textPath startOffset="21.466115282336823" xlink:href="#id4">April</textPath></text><path d="M 120.99980553446 99.90962569577887 l 62.99941660337998 -0.27112291266339017 a84.0,84.0 0 0,0 -0.006222810841987947,1.4459620871852612 l -62.994749495248485 -0.8133486527255557" fill="#4dd2ff" stroke="none" /><path d="M 120.76222939487914 103.15116336523771 l 4.741327568308095 0.7196095106977795 a25.795625606517365,25.795625606517365 0 0,0 -0.07040761928183813,0.43842831247732694 l -4.728238194664969 -0.8011170528683114" fill="#ff0701" stroke="none" /><path d="M 120.70491114924044 103.5080841355445 l 14.613530603309465 2.4760065138287084 a35.821804375661706,35.821804375661706 0 0,0 -0.10823909187930249,0.6070623091524169 l -14.568745069090975 -2.7271875737143434" fill="#ff9a0e" stroke="none" /><line stroke="#e1ed5e" stroke-width="0.3" x1="174.80103733775053" x2="179.2010983576182" y1="140.37084112569926" y2="142.7455964860345" /><path d="M 175.68104954172406 140.8457921977663 a86.0,86.0 0 0,1 -30.038265399797805,32.042727171017184" fill="none" id="id5" stroke="none" /><text fill="#e1ed5e" style="font-size:6.75px; font-family:Arial;" text-anchor="middle"><textPath startOffset="22.206326154141568" xlink:href="#id5">May</textPath></text><path d="M 117.94076556474637 110.91462005526583 l 12.6528375879701 7.697604341090562 a35.81038188635004,35.81038188635004 0 0,0 -0.32491161982588374,0.5238609852712994 l -12.518461328476253 -7.914261657727135" fill="#ff9a0e" stroke="none" /><path d="M 117.55443506779139 111.5257021239791 l 12.386522638146994 8.132609777978338 a35.81773548374369,35.81773548374369 0 0,0 -0.3428216001644146,0.512471777600276 l -12.244697932571858 -8.34461846978442" fill="#ff9a0e" stroke="none" /><path d="M 116.93607887273984 112.41649034213515 l 5.9902398298352235 4.391675047873098 a28.427636430591868,28.427636430591868 0 0,0 -0.2927217186954114,0.3921485780921073 l -5.91375684444472 -4.49413650547452" fill="#ff2f04" stroke="none" /><path d="M 116.71984013943494 112.70617746262583 l 5.916148244990176 4.495953841014896 a28.430640012625894,28.430640012625894 0 0,0 -0.29946017871047886,0.38709264862161974 l -5.837881249061629 -4.597124483749768" fill="#ff2f04" stroke="none" /><path d="M 116.498646956653 112.99209946851258 l 5.824838613731084 4.586853870893382 a28.41403893360038,28.41403893360038 0 0,0 -0.3059002499553831,0.38165759613298106 l -5.745020451720848 -4.686439300604614" fill="#ff2f04" stroke="none" /><path d="M 115.56566222782051 114.09645910891815 l 10.987344353641362 9.950276970541378 a35.823283972722805,35.823283972722805 0 0,0 -0.41785914697655874,0.4535035758592291 l -10.814438798669082 -10.137931801201942" fill="#ff9a0e" stroke="none" /><path d="M 115.32070863581623 114.36230785411682 l 10.824402133364405 10.14727187048655 a35.836940653596734,35.836940653596734 0 0,0 -0.4257658053187255,0.4464137446874258 l -10.648129776666714 -10.332092731756484" fill="#ff9a0e" stroke="none" /><path d="M 113.75828350139079 115.86535959552629 l 9.70540355264933 11.191782562622329 a35.81387373541423,35.81387373541423 0 0,0 -0.46922062295823797,0.3998799944090305 l -9.511317453114044 -11.357186947254307" fill="#ff9a0e" stroke="none" /><line stroke="#e1ed5e" stroke-width="0.3" x1="143.8653032363475" x2="146.44561519142675" y1="172.8068346515853" y2="177.08958963109032" /><path d="M 144.38136562736335 173.6633856474863 a86.0,86.0 0 0,1 -40.68145358897372,12.25698825130547" fill="none" id="id6" stroke="none" /><text fill="#e1ed5e" style="font-size:6.75px; font-family:Arial;" text-anchor="middle"><textPath startOffset="21.466115282336833" xlink:href="#id6">June</textPath></text><path d="M 109.57404056367764 118.69057910512821 l 3.497152569710707 6.827191331824945 a28.670763819671407,28.670763819671407 0 0,0 -0.4411831091465384,0.22121836973718204 l -3.3791155528814083 -6.88637754247143" fill="#ff3304" stroke="none" /><path d="M 108.92500713936063 119.00905698771935 l 3.1541132135975913 6.717834158202188 a28.42143691890587,28.42143691890587 0 0,0 -0.4446357921018097,0.20411048414549965 l -3.038009425728362 -6.771131712681762" fill="#ff2f04" stroke="none" /><path d="M 108.59647513512805 119.15986991738527 l 3.642431481037601 8.11827083341292 a29.89795641811628,29.89795641811628 0 0,0 -0.47136167809627705,0.20663110763458267 l -3.5021491282835706 -8.179766494341958" fill="#ff4506" stroke="none" /><path d="M 108.2653958097858 119.30500536409082 l 3.004503472383288 7.017444413504983 a28.633581545526027,28.633581545526027 0 0,0 -0.4547674601066537,0.19009283520731432 l -2.883264552779173 -7.06812229173227" fill="#ff3204" stroke="none" /><path d="M 107.59598834532513 119.57807347666477 l 2.6860197994089976 6.923008646395557 a28.425816526206717,28.425816526206717 0 0,0 -0.45769595555786713,0.17306144690587522 l -2.566453623090856 -6.968218343408063" fill="#ff2f04" stroke="none" /><path d="M 106.91757812671514 119.82793768551818 l 4.968116439476609 14.240172119764361 a36.08193233497326,36.08193233497326 0 0,0 -0.5881875015415382,0.19954513563465845 l -4.722259204997844 -14.323580242297142" fill="#ff9e0e" stroke="none" /><path d="M 105.88484417918355 120.15858648285463 l 5.064193517496857 17.347440285587222 a39.071517380803186,39.071517380803186 0 0,0 -0.6472268148400285,0.18291276284770416 l -4.7648355345522235 -17.432041841773444" fill="#ffc712" stroke="none" /><path d="M 103.41894727170886 120.7198165907248 l 2.416572130712967 14.645131190222546 a35.843169757223954,35.843169757223954 0 0,0 -0.6096140367558195,0.09520917519538001 l -2.1641222303486303 -14.684558672765032" fill="#ff9a0e" stroke="none" /><path d="M 100.90346689309514 120.98055641714683 l 0.6530272103213444 15.164777295980185 a36.178831146504535,36.178831146504535 0 0,0 -0.6224131139729188,0.021437166126870116 l -0.39189374467377325 -15.17377126053315" fill="#ff9f0e" stroke="none" /><line stroke="#e1ed5e" stroke-width="0.3" x1="102.19456741930631" x2="102.32365962044197" y1="184.97166512339345" y2="189.96999836594603" /><path d="M 102.22038585953345 185.97133177190398 a86.0,86.0 0 0,1 -42.740103519485714,-10.115201625700543" fill="none" id="id7" stroke="none" /><text fill="#e1ed5e" style="font-size:6.75px; font-family:Arial;" text-anchor="middle"><textPath startOffset="22.20632615414155" xlink:href="#id7">July</textPath></text><path d="M 99.81925306533755 120.99922214144158 l -0.06388214251877576 7.421842611761349 a28.422117533553973,28.422117533553973 0 0,0 -0.48918566548737086,-0.008421774863187343 l 0.19162749789881453 -7.419643359619002" fill="#ff2f04" stroke="none" /><path d="M 99.09653310690486 120.98055641714683 l -0.6375009803608502 14.804222918037574 a35.81794262733224,35.81794262733224 0 0,0 -0.6157478406356213,-0.03182713003839932 l 0.8922368894099605 -14.791055981236973" fill="#ff9a0e" stroke="none" /><path d="M 98.01472825383883 120.90594882070398 l -2.8683103441003803 30.204806657632282 a51.34069131471827,51.34069131471827 0 0,0 -0.8790685268812864,-0.09111904710558998 l 3.3878114675872597 -30.15095824207093" fill="#9dff22" stroke="none" /><path d="M 92.06813273071674 119.44442032107085 l -3.246783351833733 7.959263316091155 a29.596015045858113,29.596015045858113 0 0,0 -0.47005312871124777,-0.19648224592373978 l 3.383307940042443 -7.9021960271474425" fill="#ff4106" stroke="none" /><path d="M 91.7346041902142 119.30500536409082 l -5.830847074532792 13.618771156461534 a35.814509962150495,35.814509962150495 0 0,0 -0.564640180749158,-0.2475216619950954 l 6.064407929939693 -13.516384941171987" fill="#ff9a0e" stroke="none" /><path d="M 90.10565033884886 118.52300852407294 l -6.981419357691014 13.069771607161227 a35.817528340155135,35.817528340155135 0 0,0 -0.5413174490673198,-0.2951694338153983 l 7.205359618626974 -12.947661521586063" fill="#ff9a0e" stroke="none" /><line stroke="#e1ed5e" stroke-width="0.3" x1="58.666819895761336" x2="56.23545636021788" y1="174.27360380694188" y2="178.64263932499728" /><path d="M 58.180547188652646 175.14741091055294 a86.0,86.0 0 0,1 -31.652253787137756,-30.449443065178592" fill="none" id="id8" stroke="none" /><text fill="#e1ed5e" style="font-size:6.75px; font-family:Arial;" text-anchor="middle"><textPath startOffset="22.20632615414155" xlink:href="#id8">August</textPath></text><path d="M 89.7882731507175 118.34994917583269 l -6.081980352803337 10.929006622439756 a33.50734467283995,33.50734467283995 0 0,0 -0.5015750054811122,-0.2848073784157141 l 6.269204125205657 -10.82269607822941" fill="#ff790b" stroke="none" /><path d="M 89.1626897886671 117.98757091392108 l -7.738030320905813 12.843442368735674 a35.99436978089751,35.99436978089751 0 0,0 -0.5279530751354466,-0.32431189960904344 l 7.957962595973569 -12.708342002298252" fill="#ff9c0e" stroke="none" /><path d="M 88.54995079064634 117.60387380957326 l -8.12126761413605 12.486039809875647 a35.89483728659748,35.89483728659748 0 0,0 -0.5150486980506684,-0.3413461923208879 l 8.33499101092668 -12.34439559646344" fill="#ff9b0e" stroke="none" /><path d="M 87.36589467227662 116.77436683061367 l -7.214890016406878 9.579246700767346 a32.992356119754355,32.992356119754355 0 0,0 -0.4506932928604584,-0.3455723984174796 l 7.378712037760824 -9.4536349605225" fill="#ff720a" stroke="none" /><path d="M 85.97065885151581 115.62618273729859 l -10.033960989271776 11.17604214893775 a36.01946374705372,36.01946374705372 0 0,0 -0.4577910048595683,-0.41818122881925196 l 10.2248515435982 -11.001668153531922" fill="#ff9d0e" stroke="none" /><path d="M 85.44109423537348 115.13401014063109 l -3.1887299650757317 3.314690843349127 a25.59947542412767,25.59947542412767 0 0,0 -0.3149345569037176,-0.3082297488679471 l 3.2453144743552436 -3.2593109915586105" fill="#ff0400" stroke="none" /><path d="M 84.19399662182784 113.82643327865904 l -11.147427922607976 9.751305545932611 a35.81057423396798,35.81057423396798 0 0,0 -0.40185857403839165,-0.46745230903365054 l 11.313629006217147 -9.55797613773743" fill="#ff9a0e" stroke="none" /><path d="M 83.06392112726016 112.41649034213515 l -12.292363426398206 9.012004072061645 a36.241995145042786,36.241995145042786 0 0,0 -0.3645257971075316,-0.5062944498551694 l 12.445669015881345 -8.799076016755336" fill="#ffa00e" stroke="none" /><path d="M 82.44556493220864 111.52570212397912 l -12.385211595291382 8.131748987564585 a35.81616711085893,35.81616711085893 0 0,0 -0.3339348253705327,-0.5182742646949454 l 12.523351284038961 -7.917353122948191" fill="#ff9a0e" stroke="none" /><path d="M 82.24976979558568 111.22182372390057 l -8.341076093373614 5.273288543841075 a30.86818739496035,30.86818739496035 0 0,0 -0.28007053371884916,-0.4515628767541109 l 8.430611266760419 -5.1289293357217005" fill="#ff5307" stroke="none" /><line stroke="#e1ed5e" stroke-width="0.3" x1="26.63291911575756" x2="22.317208475507996" y1="142.92168965132927" y2="145.44649492493687" /><path d="M 25.769776987707644 143.4266507060508 a86.0,86.0 0 0,1 -11.730757126820373,-40.83630448921669" fill="none" id="id9" stroke="none" /><text fill="#e1ed5e" style="font-size:6.75px; font-family:Arial;" text-anchor="middle"><textPath startOffset="21.46611528233685" xlink:href="#id9">September</textPath></text><path d="M 81.69416730710424 110.29060199501025 l -6.453500825557356 3.627827784968983 a28.40329705893681,28.40329705893681 0 0,0 -0.23591452649690184,-0.42825339159827686 l 6.514991761505774 -3.516203874972884" fill="#ff2f04" stroke="none" /><path d="M 81.02952815118164 109.00673069616217 l -13.507692410989787 6.413132411356253 a35.95279310348067,35.95279310348067 0 0,0 -0.26061560504075154,-0.5613428278051187 l 13.616082632870365 -6.179669516272307" fill="#ff9c0e" stroke="none" /><path d="M 80.73074385275274 108.34839909993369 l -6.799022802111819 2.9456744675474984 a28.409703714211364,28.409703714211364 0 0,0 -0.19054661394114064,-0.45039590879703373 l 6.848720397245266 -2.828204033084306" fill="#ff2f04" stroke="none" /><path d="M 79.86692584326677 105.97154293290107 l -14.209970490329084 4.21472886841172 a35.82184876357354,35.82184876357354 0 0,0 -0.17025163175985944,-0.5926682650718361 l 14.280414758975047 -3.9695031278352886" fill="#ff9a0e" stroke="none" /><path d="M 79.4281124754447 104.21870165774334 l -11.89363128669884 2.439041238481063 a33.14114440021832,33.14114440021832 0 0,0 -0.10979198272315739,-0.5598269545350556 l 11.933853202397664 -2.233950556878052" fill="#ff740a" stroke="none" /><path d="M 79.29508885075956 103.50808413554451 l -14.59393883892983 2.4726870328943558 a35.80193338713117,35.80193338713117 0 0,0 -0.09771923867734715,-0.608497792524148 l 14.634339831968468 -2.221110010676994" fill="#ff9a0e" stroke="none" /><path d="M 79.18660465613746 102.79330883721812 l -31.459549547512562 4.222100061722087 a52.7416034041066,52.7416034041066 0 0,0 -0.11301393109933783,-0.9008322262603718 l 31.52756498785875 -3.679950081174307" fill="#8dff24" stroke="none" /><path d="M 79.07016306316243 101.71520430193888 l -14.76138558109152 1.2096984858350417 a35.81087015338019,35.81087015338019 0 0,0 -0.045059353651283135,-0.614799080748568 l 14.780021493407139 -0.9554262685897129" fill="#ff9a0e" stroke="none" /><line stroke="#e1ed5e" stroke-width="0.3" x1="15.007084014347285" x2="10.007500721073583" y1="101.09737516637583" y2="101.16192664675087" /><path d="M 14.007167355692545 101.11028546245083 a86.0,86.0 0 0,1 10.666146001902534,-42.60595125391555" fill="none" id="id10" stroke="none" /><text fill="#e1ed5e" style="font-size:6.75px; font-family:Arial;" text-anchor="middle"><textPath startOffset="22.20632615414155" xlink:href="#id10">October</textPath></text><path d="M 79.00019446554 99.90962569577889 l -14.806412617405174 -0.06372055379812916 a35.80654972996179,35.80654972996179 0 0,0 0.007957567272804562,-0.6163223548255136 l 14.803122043014653 0.3185791666841147" fill="#ff9a0e" stroke="none" /><path d="M 79.01574976396665 99.18683210126434 l -14.857556238916189 -0.5757502722875497 a35.868707602498496,35.868707602498496 0 0,0 0.029218293543162813,-0.6167519969070973 l 14.845444337139527 0.8314133758176561" fill="#ff9b0e" stroke="none" /><path d="M 79.03285615573316 98.82574320788736 l -14.798688358204926 -0.8287948252776479 a35.82187835551476,35.82187835551476 0 0,0 0.03977833487440037,-0.615353234199199 l 14.782229432326112 1.0834071237298588" fill="#ff9a0e" stroke="none" /><path d="M 79.08570108090925 98.10471618934814 l -14.882634632532234 -1.3486857287450127 a35.94361960170187,35.94361960170187 0 0,0 0.06114330502654179,-0.6157047374182877 l 14.857214201823464 1.6046659968677306" fill="#ff9c0e" stroke="none" /><path d="M 79.12142395522702 97.74499172005258 l -14.729057032093904 -1.5908242732628712 a35.81471710573905,35.81471710573905 0 0,0 0.07147534053227854,-0.6123570684256805 l 14.699491338558037 1.8441250800134135" fill="#ff9a0e" stroke="none" /><path d="M 79.16333360222342 97.38593545837743 l -14.91839809904174 -1.871588033519401 a36.035339823519294,36.035339823519294 0 0,0 0.0825106340012085,-0.6148000617254237 l 14.883971465982697 2.128106437309484" fill="#ff9d0e" stroke="none" /><path d="M 79.26566170972629 96.67025291283419 l -14.844024122662619 -2.383815938193724 a36.03421532975287,36.03421532975287 0 0,0 0.10362091358777231,-0.6115764976386464 l 14.800791347554622 2.638978224148198" fill="#ff9d0e" stroke="none" /><path d="M 79.3925641242962 95.95851677861259 l -18.001506928763042 -3.530414392702816 a39.344429058722625,39.344429058722625 0 0,0 0.13605810190795165,-0.6634676249545576 l 17.938069530940098 3.839757673820776" fill="#ffca12" stroke="none" /><path d="M 79.54389044137918 95.25157060432595 l -44.20754334539226 -10.261794782152508 a66.3829408565129,66.3829408565129 0 0,0 0.26795695270754993,-1.110854561088545 l 44.0243535924239 11.021234574900449" fill="#36ff6d" stroke="none" /><path d="M 79.81627453868168 94.20196356495316 l -14.549534496151944 -4.179542140688133 a36.13794987970641,36.13794987970641 0 0,0 0.17689372086221516,-0.5963976881682229 l 14.475434878178023 4.429369215602895" fill="#ff9e0e" stroke="none" /><path d="M 80.2630227832202 92.82701384747504 l -58.82242351432941 -21.377763407839808 a83.58663017307057,83.58663017307057 0 0,0 0.5030936436422632,-1.3480408425382924 l 58.44572528218552 22.387127387407443" fill="#4cd6ff" stroke="none" /><path d="M 80.65960295795068 91.81776055985345 l -6.85215441934326 -2.898904713177701 a28.44013902575814,28.44013902575814 0 0,0 0.1946243900651036,-0.4492199258533341 l 6.801239319435476 3.016423783617634" fill="#ff2f04" stroke="none" /><path d="M 80.803312248108 91.48605970444005 l -7.2860711966878595 -3.2314520066976398 a28.970515388279146,28.970515388279146 0 0,0 0.2061013273993558,-0.4541169551582667 l 7.229367552325153 3.3563909706979773" fill="#ff3705" stroke="none" /><line stroke="#e1ed5e" stroke-width="0.3" x1="26.266209847984243" x2="21.928928074336255" y1="57.711370442889674" y2="55.22380399835377" /><path d="M 25.398753493254645 57.213857153982495 a86.0,86.0 0 0,1 29.58750427330803,-30.492523968695096" fill="none" id="id11" stroke="none" /><text fill="#e1ed5e" style="font-size:6.75px; font-family:Arial;" text-anchor="middle"><textPath startOffset="21.46611528233685" xlink:href="#id11">November</textPath></text><path d="M 82.15384107792192 88.93136811851018 l -3.679189428034922 -2.2819248432673715 a25.329389776594937,25.329389776594937 0 0,0 0.23299710041751345,-0.3685454584858135 l 3.639364731371446 2.344917949467401" fill="#ff0000" stroke="none" /><path d="M 83.17141714833178 87.43820079747576 l -6.334794035505241 -4.728645980756283 a28.905043218325584,28.905043218325584 0 0,0 0.30105849527189343,-0.3961576900976662 l 6.252459600009239 4.836988446734975" fill="#ff3605" stroke="none" /><path d="M 84.07557802195018 86.31012108654704 l -23.905661867368742 -20.551177101519293 a52.52509396615621,52.52509396615621 0 0,0 0.5953047490611189,-0.6805362370080839 l 23.548365254729777 20.95962889473032" fill="#90ff24" stroke="none" /><line stroke="#e1ed5e" stroke-width="0.3" x1="56.762969772571076" x2="54.21961505331055" y1="26.818313649435495" y2="22.513508569990535" /><path d="M 56.25429882871897 25.957352633546506 a86.0,86.0 0 0,1 42.265352541879196,-11.944610805530505" fill="none" id="id12" stroke="none" /><text fill="#e1ed5e" style="font-size:6.75px; font-family:Arial;" text-anchor="middle"><textPath startOffset="22.20632615414155" xlink:href="#id12">December</textPath></text><path d="M 89.3179101791058 81.91981866633112 l -7.538299805589054 -12.75909767824829 a35.819599776040675,35.819599776040675 0 0,0 0.5335470405585719,-0.30906488397004606 l 7.317556032565162 12.886966719608383" fill="#ff9a0e" stroke="none" /><path d="M 89.63071344664047 81.73862282372117 l -4.134826059860916 -7.281852791787635 a29.37389793504616,29.37389793504616 0 0,0 0.4418336556065459,-0.24587995098189544 l 4.008868315182324 7.351948140329715" fill="#ff3d05" stroke="none" /><path d="M 90.26544431104013 81.39251694778311 l -7.014615046729951 -13.408350085036037 a36.132371798786075,36.132371798786075 0 0,0 0.5535815088001398,-0.2835659500298851 l 6.7827730503410475 13.527108560378426" fill="#ff9e0e" stroke="none" /><path d="M 90.91171255644093 81.06846463323043 l -6.542671517003324 -13.628840195309486 a36.11793093146976,36.11793093146976 0 0,0 0.5627892363596539,-0.26423709265063633 l 6.307104069344062 13.73944227060013" fill="#ff9e0e" stroke="none" /><path d="M 91.56875222667455 80.76684994638697 l -5.94989131491987 -13.572742201289536 a35.819599776040675,35.819599776040675 0 0,0 0.5668302283347121,-0.24268712211043553 l 5.715377328794849 13.673148851362757" fill="#ff9a0e" stroke="none" /></svg>