<?xml version="1.0" encoding="utf-8" ?>
<svg baseProfile="full" height="200mm" version="1.1" viewBox="0,0,200,200" width="200mm" xmlns="http://www.w3.org/2000/svg" xmlns:ev="http://www.w3.org/2001/xml-events" xmlns:xlink="http://www.w3.org/1999/xlink"><defs /><rect fill="#1a1a1a" height="200" width="200" x="0" y="0" /><text alignment-baseline="middle" fill="#e1ed5e" style="dominant-baseline: central; font-size:9.0px; font-family:Arial;" text-anchor="middle" x="100.0" y="100.0">2026</text><line stroke="#e1ed5e" stroke-width="0.3" x1="100.0" x2="100.0" y1="15.0" y2="10.0" /><path d="M 100.0 14.0 a86.0,86.0 0 0,1 42.46469731375804,11.215312516191453" fill="none" id="id37" stroke="none" /><text fill="#e1ed5e" style="font-size:6.75px; font-family:Arial;" text-anchor="middle"><textPath startOffset="22.20632615414155" xlink:href="#id37">January</textPath></text><path d="M 101.08401301168833 79.027996857942 l 3.2128170631103035 -62.15719628444776 a83.24017387045427,83.24017387045427 0 0,0 1.4302958949356757,0.08627935435118234 l -4.282275006885591 62.09268366071627" fill="red" stroke="none" /><path d="M 101.44485096284872 79.0497635885617 l 4.302708493626014 -62.388967768163454 a83.53716174850007,83.53716174850007 0 0,0 1.43369584033259,0.11128239035400571 l -5.375994523320944 62.30566011562099" fill="red" stroke="none" /><path d="M 103.95276090670814 79.375362276772 l 11.787542480853604 -61.504806147567336 a83.62417533978204,83.62417533978204 0 0,0 1.411391272429982,0.2831118115697322 l -12.84450016275071 61.2927903799204" fill="red" stroke="none" /><path d="M 104.307194497241 79.44645832069477 l 12.75539234075318 -60.86757593126907 a83.18972450104077,83.18972450104077 0 0,0 1.3990026896764796,0.30576780136207565 l -13.80123775458319 60.63899463181113" fill="red" stroke="none" /><path d="M 106.40334571778207 80.00007090966166 l 19.179270986336814 -59.903693574736735 a83.89910126117302,83.89910126117302 0 0,0 1.3716191743515977,0.4522012766547329 l -20.207572982930827 59.56467857382277" fill="red" stroke="none" /><line stroke="#e1ed5e" stroke-width="0.3" x1="143.23703022742887" x2="145.7803849466894" y1="26.81831364943548" y2="22.513508569990506" /><path d="M 143.74570117128098 25.957352633546492 a86.0,86.0 0 0,1 28.547481713284135,27.462654790039103" fill="none" id="id38" stroke="none" /><text fill="#e1ed5e" style="font-size:6.75px; font-family:Arial;" text-anchor="middle"><textPath startOffset="19.985693538727396" xlink:href="#id38">February</textPath></text><path d="M 116.82858285166822 87.43820079747576 l 50.349380780653775 -37.583605043446 a83.82982980286519,83.82982980286519 0 0,0 0.8532175626424642,1.1637877965791386 l -50.98886095580986 36.71135480319536" fill="red" stroke="none" /><path d="M 117.04232023915458 87.72973835380427 l 50.9225029561031 -36.66357785690553 a83.74806171176687,83.74806171176687 0 0,0 0.8322458854824462,1.1771527840900562 l -51.54606146138943 35.78159857248369" fill="red" stroke="none" /><path d="M 117.2510076193507 88.02491185347247 l 51.75302285805209 -35.92526443958259 a84.0,84.0 0 0,0 0.8143021373250665,1.1948879069183742 l -52.36374946104589 35.02909850939381" fill="red" stroke="none" /><path d="M 117.45458315368197 88.32363383020206 l 52.24821196070451 -34.951808885892 a83.86099424513284,83.86099424513284 0 0,0 0.7923001628792405,1.2067275046548278 l -52.84210875894168 34.04726331725949" fill="red" stroke="none" /><line stroke="#e1ed5e" stroke-width="0.3" x1="172.23445277983987" x2="176.4835382374775" y1="55.19839476539836" y2="52.563006222186495" /><path d="M 173.08426987136738 54.67131705675599 a86.0,86.0 0 0,1 12.851231095245387,41.99856678651699" fill="none" id="id39" stroke="none" /><text fill="#e1ed5e" style="font-size:6.75px; font-family:Arial;" text-anchor="middle"><textPath startOffset="22.20632615414155" xlink:href="#id39">March</textPath></text><path d="M 118.03404312379186 89.2402003453031 l 53.80773747358399 -32.10375350186905 a83.65719113505571,83.65719113505571 0 0,0 0.72718147155672,1.242988854227742 l -54.35237861961104 31.17278523528741" fill="red" stroke="none" /><path d="M 119.34039704204932 91.81776055985345 l 57.67563575252538 -24.400526036968824 a83.62479245745072,83.62479245745072 0 0,0 0.5494479903700425,1.330531890504719 l -58.08710542978162 23.404119576010803" fill="red" stroke="none" /><path d="M 120.96714384426684 98.82574320788733 l 62.76387556767555 -3.5150666076443113 a83.86222848047018,83.86222848047018 0 0,0 0.06831333975233107,1.4419866322924824 l -62.81508251566138 2.4341688687288294" fill="red" stroke="none" /><line stroke="#e1ed5e" stroke-width="0.3" x1="184.98032266829074" x2="189.97916517819016" y1="98.17113171792111" y2="98.06355123074" /><path d="M 185.9800911702706 98.14961562048488 a86.0,86.0 0 0,1 -9.607161424134198,41.387399972396054" fill="none" id="id40" stroke="none" /><text fill="#e1ed5e" style="font-size:6.75px; font-family:Arial;" text-anchor="middle"><textPath startOffset="21.466115282336823" xlink:href="#id40">April</textPath></text><path d="M 120.5718875245553 104.21870165774334 l 61.02437460841071 12.514341720756509 a83.29432594587976,83.29432594587976 0 0,0 -0.3001212019759311,1.4020663401387492 l -60.79991936771034 -13.562921880311427" fill="red" stroke="none" /><path d="M 120.49622156327973 104.57218783832717 l 59.899611479426866 13.362085996250999 a82.37188931064037,82.37188931064037 0 0,0 -0.3206205531182328,1.3812249514138661 l -59.66073036037808 -14.391179605013429" fill="red" stroke="none" /><line stroke="#e1ed5e" stroke-width="0.3" x1="174.80103733775053" x2="179.2010983576182" y1="140.37084112569926" y2="142.7455964860345" /><path d="M 175.68104954172406 140.8457921977663 a86.0,86.0 0 0,1 -30.038265399797805,32.042727171017184" fill="none" id="id41" stroke="none" /><text fill="#e1ed5e" style="font-size:6.75px; font-family:Arial;" text-anchor="middle"><textPath startOffset="22.206326154141568" xlink:href="#id41">May</textPath></text><line stroke="#e1ed5e" stroke-width="0.3" x1="143.8653032363475" x2="146.44561519142675" y1="172.8068346515853" y2="177.08958963109032" /><path d="M 144.38136562736335 173.6633856474863 a86.0,86.0 0 0,1 -40.68145358897372,12.25698825130547" fill="none" id="id42" stroke="none" /><text fill="#e1ed5e" style="font-size:6.75px; font-family:Arial;" text-anchor="middle"><textPath startOffset="21.466115282336833" xlink:href="#id42">June</textPath></text><line stroke="#e1ed5e" stroke-width="0.3" x1="102.19456741930631" x2="102.32365962044197" y1="184.97166512339345" y2="189.96999836594603" /><path d="M 102.22038585953345 185.97133177190398 a86.0,86.0 0 0,1 -42.740103519485714,-10.115201625700543" fill="none" id="id43" stroke="none" /><text fill="#e1ed5e" style="font-size:6.75px; font-family:Arial;" text-anchor="middle"><textPath startOffset="22.20632615414155" xlink:href="#id43">July</textPath></text><line stroke="#e1ed5e" stroke-width="0.3" x1="58.666819895761336" x2="56.23545636021788" y1="174.27360380694188" y2="178.64263932499728" /><path d="M 58.180547188652646 175.14741091055294 a86.0,86.0 0 0,1 -31.652253787137756,-30.449443065178592" fill="none" id="id44" stroke="none" /><text fill="#e1ed5e" style="font-size:6.75px; font-family:Arial;" text-anchor="middle"><textPath startOffset="22.20632615414155" xlink:href="#id44">August</textPath></text><line stroke="#e1ed5e" stroke-width="0.3" x1="26.63291911575756" x2="22.317208475507996" y1="142.92168965132927" y2="145.44649492493687" /><path d="M 25.769776987707644 143.4266507060508 a86.0,86.0 0 0,1 -11.730757126820373,-40.83630448921669" fill="none" id="id45" stroke="none" /><text fill="#e1ed5e" style="font-size:6.75px; font-family:Arial;" text-anchor="middle"><textPath startOffset="21.46611528233685" xlink:href="#id45">September</textPath></text><line stroke="#e1ed5e" stroke-width="0.3" x1="15.007084014347285" x2="10.007500721073583" y1="101.09737516637583" y2="101.16192664675087" /><path d="M 14.007167355692545 101.11028546245083 a86.0,86.0 0 0,1 10.666146001902534,-42.60595125391555" fill="none" id="id46" stroke="none" /><text fill="#e1ed5e" style="font-size:6.75px; font-family:Arial;" text-anchor="middle"><textPath startOffset="22.20632615414155" xlink:href="#id46">October</textPath></text><line stroke="#e1ed5e" stroke-width="0.3" x1="26.266209847984243" x2="21.928928074336255" y1="57.711370442889674" y2="55.22380399835377" /><path d="M 25.398753493254645 57.213857153982495 a86.0,86.0 0 0,1 29.58750427330803,-30.492523968695096" fill="none" id="id47" stroke="none" /><text fill="#e1ed5e" style="font-size:6.75px; font-family:Arial;" text-anchor="middle"><textPath startOffset="21.46611528233685" xlink:href="#id47">November</textPath></text><line stroke="#e1ed5e" stroke-width="0.3" x1="56.762969772571076" x2="54.21961505331055" y1="26.818313649435495" y2="22.513508569990535" /><path d="M 56.25429882871897 25.957352633546506 a86.0,86.0 0 0,1 42.265352541879196,-11.944610805530505" fill="none" id="id48" stroke="none" /><text fill="#e1ed5e" style="font-size:6.75px; font-family:Arial;" text-anchor="middle"><textPath startOffset="22.20632615414155" xlink:href="#id48">December</textPath></text></svg>