<?xml version="1.0" encoding="utf-8" ?>
<svg baseProfile="full" height="200mm" version="1.1" viewBox="0,0,200,200" width="200mm" xmlns="http://www.w3.org/2000/svg" xmlns:ev="http://www.w3.org/2001/xml-events" xmlns:xlink="http://www.w3.org/1999/xlink"><defs /><rect fill="#1a1a1a" height="200" width="200" x="0" y="0" /><text alignment-baseline="middle" fill="#e1ed5e" style="dominant-baseline: central; font-size:9.0px; font-family:Arial;" text-anchor="middle" x="100.0" y="100.0">2024</text><line stroke="#e1ed5e" stroke-width="0.3" x1="100.0" x2="100.0" y1="15.0" y2="10.0" /><path d="M 100.0 14.0 a86.0,86.0 0 0,1 42.35913384403234,11.155469271406648" fill="none" id="id13" stroke="none" /><text fill="#e1ed5e" style="font-size:6.75px; font-family:Arial;" text-anchor="middle"><textPath startOffset="22.145653131862478" xlink:href="#id13">January</textPath></text><line stroke="#e1ed5e" stroke-width="0.3" x1="143.13028292997686" x2="145.6673583964461" y1="26.7553504044142" y2="22.446841604673864" /><path d="M 143.63769802327073 25.89364864446614 a86.0,86.0 0 0,1 29.32050498858742,28.57503671076993" fill="none" id="id14" stroke="none" /><text fill="#e1ed5e" style="font-size:6.75px; font-family:Arial;" text-anchor="middle"><textPath startOffset="20.669276256404974" xlink:href="#id14">February</textPath></text><path d="M 114.91283532996326 85.21462403516908 l 6.087695678827432 -6.035664404480617 a29.57258907690836,29.57258907690836 0 0,0 0.3543263683758797,0.36357006840300476 l -6.1904088483541235 5.930271644009871" fill="#ff5f08" stroke="none" /><path d="M 117.42321728460499 88.27688183743584 l 4.910251005702058 -3.303836014176171 a26.918268103724735,26.918268103724735 0 0,0 0.25466676279951816,0.38559793742211 l -4.966242207422301 3.219058198415002" fill="#ff3905" stroke="none" /><path d="M 117.62189284568427 88.57770195909679 l 9.97582291127948 -6.466207886618233 a32.88818266978483,32.88818266978483 0 0,0 0.3030134048180653,0.4763874015627825 l -10.085354007723435 6.294006810376779" fill="#ff8c0c" stroke="none" /><line stroke="#e1ed5e" stroke-width="0.3" x1="172.87174338648825" x2="177.1583165268699" y1="56.24261187166439" y2="53.66864786411523" /><path d="M 173.72905801456457 55.72781907015455 a86.0,86.0 0 0,1 12.242430191666344,42.057860355516425" fill="none" id="id15" stroke="none" /><text fill="#e1ed5e" style="font-size:6.75px; font-family:Arial;" text-anchor="middle"><textPath startOffset="22.145653131862474" xlink:href="#id15">March</textPath></text><path d="M 118.53625476483649 90.13048839642627 l 13.173160287401133 -7.013965871837158 a35.92407012878386,35.92407012878386 0 0,0 0.2851548866688806,0.5468220942687254 l -13.29162324304496 6.7867975344639335" fill="#ffb510" stroke="none" /><path d="M 119.0197475246899 91.09779779509293 l 13.433310430628373 -6.287467569141187 a35.831927641363116,35.831927641363116 0 0,0 0.2559688476378173,0.5593381271107158 l -13.539263743121241 6.055940459815787" fill="#ffb410" stroke="none" /><path d="M 120.05942366710727 93.78553927170692 l 16.790699614814976 -5.20180166132763 a38.578007113399934,38.578007113399934 0 0,0 0.1905453745108611,0.634263580222218 l -16.877521309329463 4.912800477514688" fill="#ffd714" stroke="none" /><line stroke="#e1ed5e" stroke-width="0.3" x1="184.99686870605535" x2="189.99668451229388" y1="99.2704041080226" y2="99.22748670261217" /><path d="M 185.99683186730306 99.26182062694052 a86.0,86.0 0 0,1 -10.086455211305974,41.156179273409016" fill="none" id="id16" stroke="none" /><text fill="#e1ed5e" style="font-size:6.75px; font-family:Arial;" text-anchor="middle"><textPath startOffset="21.40746469413373" xlink:href="#id16">April</textPath></text><path d="M 120.99922638620191 99.81974689727618 l 14.805005162520345 -0.12708316331786826 a35.8055505805307,35.8055505805307 0 0,0 0.0,0.6146725320833885 l -14.805005162520345 -0.12708316331786648" fill="#ffb310" stroke="none" /><path d="M 120.99303781780057 100.54070618675476 l 14.785922456503378 0.38083291320174684 a35.790826095844295,35.790826095844295 0 0,0 -0.0210915559798825,0.6140576394480023 l -14.77720621352665 -0.6345968172138597" fill="#ffb310" stroke="none" /><path d="M 120.86939407059847 102.33845913500097 l 31.129171346005386 3.488088578557833 a52.32398554815189,52.32398554815189 0 0,0 -0.10768254733193494,0.8917659655357976 l -31.064706712413788 -4.021948221017039" fill="#84ff25" stroke="none" /><path d="M 120.7213421655516 103.40968896794604 l 14.59789757732179 2.4020784911967734 a35.794208148996944,35.794208148996944 0 0,0 -0.10497108769413954,0.6054453388387799 l -14.554511672135416 -2.652316862956141" fill="#ffb310" stroke="none" /><path d="M 120.43855184770803 104.8234425847677 l 43.13177568191111 10.178981619194719 a65.31660795095449,65.31660795095449 0 0,0 -0.2669037946588943,1.0890585633515717 l -42.95068436073592 -10.91789600715439" fill="#35ff69" stroke="none" /><path d="M 119.83427380445688 106.89939002012753 l 59.42194531964681 20.670037156732754 a83.91437054943654,83.91437054943654 0 0,0 -0.4849444638451979,1.356475974230095 l -59.05836068575767 -21.68704808734377" fill="#4dd3ff" stroke="none" /><path d="M 119.4528033332814 107.91128576633889 l 5.398699331550101 2.195604018952004 a26.82808986551492,26.82808986551492 0 0,0 -0.1771601287999787,0.42511981623958506 l -5.360213358213637 -2.2879563446328666" fill="#ff3805" stroke="none" /><line stroke="#e1ed5e" stroke-width="0.3" x1="174.33088141563837" x2="178.70328620479359" y1="141.23008692659167" y2="143.65538615756765" /><path d="M 175.20536237346943 141.71514677278685 a86.0,86.0 0 0,1 -30.301960400862466,31.631185727798858" fill="none" id="id17" stroke="none" /><text fill="#e1ed5e" style="font-size:6.75px; font-family:Arial;" text-anchor="middle"><textPath startOffset="22.145653131862474" xlink:href="#id17">May</textPath></text><path d="M 117.423217284605 111.72311816256416 l 9.82398195611879 6.610013490461367 a32.84073054411039,32.84073054411039 0 0,0 -0.31872752073201366,0.4650329780353659 l -9.709064698571455 -6.777681203566777" fill="#ff8c0c" stroke="none" /><path d="M 116.57777611688842 112.89097897827486 l 4.677886165780574 3.6375525764524985 a26.925741112000885,26.925741112000885 0 0,0 -0.2868662936480574,0.36244619084186375 l -4.614753441490955 -3.717318711209045" fill="#ff3905" stroke="none" /><path d="M 115.89218393027572 113.72728997021213 l 4.482527012221127 3.8719000715089535 a26.923230417520756,26.923230417520756 0 0,0 -0.3051157600887434,0.3471657256534358 l -4.415400188173799 -3.9482780749736825" fill="#ff3905" stroke="none" /><path d="M 113.86319453409587 115.77377054828091 l 9.767003112487478 11.113056637978616 a35.795079507669456,35.795079507669456 0 0,0 -0.46503010539106326,0.4016819292797263 l -9.57479352733356 -11.27908269972306" fill="#ffb310" stroke="none" /><path d="M 113.31354834802062 116.24036423190432 l 3.766501949133427 4.594519953292446 a26.941056348329674,26.941056348329674 0 0,0 -0.36017527693377566,0.2901317076277529 l -3.6870759018443984 -4.658499954713602" fill="#ff3905" stroke="none" /><path d="M 111.8722381534696 117.32195027204791 l 10.026738109666951 14.62931055470285 a38.73561965158781,38.73561965158781 0 0,0 -0.5517127438405989,0.3712169562134014 l -9.774129077729349 -14.799277184973372" fill="#ffd914" stroke="none" /><line stroke="#e1ed5e" stroke-width="0.3" x1="143.1302829299769" x2="145.66735839644613" y1="173.24464959558577" y2="177.55315839532614" /><path d="M 143.63769802327073 174.10635135553383 a86.0,86.0 0 0,1 -40.68552437913181,11.842963189579606" fill="none" id="id18" stroke="none" /><text fill="#e1ed5e" style="font-size:6.75px; font-family:Arial;" text-anchor="middle"><textPath startOffset="21.407464694133747" xlink:href="#id18">June</textPath></text><path d="M 110.34350942703117 118.27599006163325 l 15.141406736159771 26.753414881222707 a51.74097275228377,51.74097275228377 0 0,0 -0.7767448747911722,0.4308472884688101 l -14.679917673212504 -27.00939508512466" fill="#8bff24" stroke="none" /><path d="M 106.72888874123015 119.89276391827305 l 4.614459385992874 13.641829238988734 a35.401136774946124,35.401136774946124 0 0,0 -0.5773373527067461,0.18978225521164416 l -4.3795992956383945 -13.719032415602397" fill="#ffae10" stroke="none" /><path d="M 104.9986988182912 120.39639698878246 l 2.81403380166546 11.48221820218451 a32.8220184858379,32.8220184858379 0 0,0 -0.5483900445731341,0.12941855733058402 l -2.6165116033524467 -11.52883290316132" fill="#ff8b0c" stroke="none" /><line stroke="#e1ed5e" stroke-width="0.3" x1="101.45913802915013" x2="101.54496967792366" y1="184.9874750549273" y2="189.98673829345242" /><path d="M 101.47630435890484 185.9873277026323 a86.0,86.0 0 0,1 -42.54439059252881,-10.42667462771756" fill="none" id="id19" stroke="none" /><text fill="#e1ed5e" style="font-size:6.75px; font-family:Arial;" text-anchor="middle"><textPath startOffset="22.145653131862474" xlink:href="#id19">July</textPath></text><path d="M 100.0 121.0 l 1.4498542374087287e-15 11.838958289183246 a32.838958289183246,32.838958289183246 0 0,0 -0.5637243867931965,-0.004838895868436761 l 0.2032314619443429 -11.837213791509244" fill="#ff8c0c" stroke="none" /><path d="M 99.63950707515114 120.99690560180557 l -0.20316275641530554 11.83321203888643 a32.8349559468061,32.8349559468061 0 0,0 -0.5634895693477413,-0.01451349247128548 l 0.4062656398337908 -11.827980829065098" fill="#ff8c0c" stroke="none" /><line stroke="#e1ed5e" stroke-width="0.3" x1="58.13341422392154" x2="55.67067388415222" y1="173.97424548756322" y2="178.32567169271397" /><path d="M 57.64086615596768 174.84453072859336 a86.0,86.0 0 0,1 -31.369924170532247,-30.572349798747897" fill="none" id="id20" stroke="none" /><text fill="#e1ed5e" style="font-size:6.75px; font-family:Arial;" text-anchor="middle"><textPath startOffset="22.145653131862474" xlink:href="#id20">August</textPath></text><path d="M 88.4268655584334 117.5232005979908 l -2.234713357421201 3.383640848451113 a25.054993117274517,25.054993117274517 0 0,0 -0.35685911633718015,-0.2401107395880039 l 2.2924687618553867 -3.3447804348059877" fill="#ff1e03" stroke="none" /><path d="M 85.86807049272751 115.53346607816431 l -2.5653626683528534 2.8197829579139397 a24.812120348299665,24.812120348299665 0 0,0 -0.31259754070166706,-0.2893356168631584 l 2.6133899803684875 -2.775329594918404" fill="#ff1b02" stroke="none" /><path d="M 85.60350026404147 115.28858382429668 l -10.137476619919939 10.7656488669518 a35.78741450510954,35.78741450510954 0 0,0 -0.44364041216298833,-0.42499747930001736 l 10.320789517948242 -10.5900392573462" fill="#ffb310" stroke="none" /><path d="M 83.8745106332314 113.45245675266167 l -4.4840766021851985 3.740776183253684 a26.839550447377157,26.839550447377157 0 0,0 -0.2921078392834906,-0.35632406785556586 l 4.547631260707319 -3.663249833699623" fill="#ff3805" stroke="none" /><path d="M 82.576782715395 111.72311816256416 l -4.939193362800812 3.32330972368857 a26.953151988207473,26.953151988207473 0 0,0 -0.25499679019581195,-0.386097640963731 l 4.995514591917351 -3.238032204385778" fill="#ff3a05" stroke="none" /><line stroke="#e1ed5e" stroke-width="0.3" x1="26.387840678322732" x2="22.057713659400548" y1="142.50000000000003" y2="145.00000000000006" /><path d="M 25.521815274538298 143.00000000000003 a86.0,86.0 0 0,1 -11.493303480769221,-40.785679425670985" fill="none" id="id21" stroke="none" /><text fill="#e1ed5e" style="font-size:6.75px; font-family:Arial;" text-anchor="middle"><textPath startOffset="21.40746469413373" xlink:href="#id21">September</textPath></text><path d="M 81.63589988554817 110.18625677009913 l -5.098878312700184 2.8282618483320254 a26.830748247905646,26.830748247905646 0 0,0 -0.21995419448463352,-0.40469094389449084 l 5.146677856800148 -2.7403160709629475" fill="#ff3805" stroke="none" /><path d="M 80.28708602549918 107.23885506374661 l -5.560390836878126 2.041852534739968 a26.92343718059559,26.92343718059559 0 0,0 -0.15559160752712653,-0.4352174179469716 l 5.594622614449195 -1.9461001604120751" fill="#ff3905" stroke="none" /><path d="M 79.48165901384964 104.47187691870673 l -5.788990520400526 1.261683540022316 a26.92488452211943,26.92488452211943 0 0,0 -0.09454774383098387,-0.4524451808998127 l 5.809795975055877 -1.1621219078370943" fill="#ff3905" stroke="none" /><line stroke="#e1ed5e" stroke-width="0.3" x1="15.003131293944662" x2="10.003315487706104" y1="100.72959589197737" y2="100.7725132973878" /><path d="M 14.003168132696942 100.73817937305945 a86.0,86.0 0 0,1 10.791469493833604,-42.45332614584628" fill="none" id="id22" stroke="none" /><text fill="#e1ed5e" style="font-size:6.75px; font-family:Arial;" text-anchor="middle"><textPath startOffset="22.145653131862435" xlink:href="#id22">October</textPath></text><path d="M 79.00696218219943 99.45929381324524 l -14.824470985631852 -0.3818257865710544 a35.82938740930087,35.82938740930087 0 0,0 0.021114280185771585,-0.6147192299083635 l 14.815732018449228 0.6362512810435564" fill="#ffb410" stroke="none" /><path d="M 79.2786578344484 96.59031103205396 l -11.678481277416319 -1.921689650015524 a32.83553192965742,32.83553192965742 0 0,0 0.0962943917441676,-0.5554004623415548 l 11.643772068179917 2.1218831452776716" fill="#ff8c0c" stroke="none" /><path d="M 79.34024301695615 96.23510406497455 l -5.834134407978108 -1.063173634376058 a26.93021605569194,26.93021605569194 0 0,0 0.08678417000624755,-0.4540914489723412 l 5.815023945689701 1.163167648381714" fill="#ff3905" stroke="none" /><path d="M 79.64726062577567 94.8264132398404 l -11.472870663693751 -2.916358858399206 a32.8377324795253,32.8377324795253 0 0,0 0.1435642508638449,-0.5451368445025495 l 11.42111693202518 3.11287620727454" fill="#ff8c0c" stroke="none" /><path d="M 79.83685265289637 94.1308016681162 l -11.358850497327884 -3.306395834111226 a32.83028900883127,32.83028900883127 0 0,0 0.1621561138733509,-0.5397649646665817 l 11.300418063450904 3.5008984023685312" fill="#ff8c0c" stroke="none" /><path d="M 80.41425534168474 92.42381321644754 l -27.575673303291875 -10.666862826645826 a50.56686863183795,50.56686863183795 0 0,0 0.32011554851095725,-0.8069002972011088 l 27.388499079814785 11.138664141060518" fill="#98ff23" stroke="none" /><path d="M 80.9802524753101 91.09779779509293 l -56.94055619488974 -26.651055396438384 a83.86895651692832,83.86895651692832 0 0,0 0.621511868918707,-1.298720767816758 l 56.47466506801113 27.624588666320232" fill="#4dd3ff" stroke="none" /><path d="M 81.29705330413844 90.45014215332179 l -1.8983673815263393 -0.9693199114104712 a23.131520538465434,23.131520538465434 0 0,0 0.1836113250525067,-0.352098925848867 l 1.8814479874988927 1.0017650803638247" fill="#ff0200" stroke="none" /><line stroke="#e1ed5e" stroke-width="0.3" x1="26.387840678322718" x2="22.05771365940052" y1="57.49999999999999" y2="54.99999999999999" /><path d="M 25.521815274538284 56.99999999999999 a86.0,86.0 0 0,1 29.574782752854787,-30.34633250058573" fill="none" id="id23" stroke="none" /><text fill="#e1ed5e" style="font-size:6.75px; font-family:Arial;" text-anchor="middle"><textPath startOffset="21.40746469413373" xlink:href="#id23">November</textPath></text><path d="M 82.18462484594161 88.88188828441811 l -53.44612546217515 -33.35433514674566 a84.0,84.0 0 0,0 0.7739292334964403,-1.2167453012853122 l 52.865678537052815 34.266894122709644" fill="#4dd2ff" stroke="none" /><path d="M 82.37810715431573 88.57770195909679 l -1.6824680976558772 -1.0905554938976618 a23.004996305457983,23.004996305457983 0 0,0 0.2176443118387343,-0.32954122797225344 l 1.663499346896414 1.1192766002089762" fill="#ff0000" stroke="none" /><path d="M 82.98947788004972 87.6856937992154 l -3.4510278709416906 -2.4982780428812568 a25.260397463331202,25.260397463331202 0 0,0 0.25729276199602724,-0.34906704615331063 l 3.4076330893618447 2.557151398303431" fill="#ff2103" stroke="none" /><path d="M 83.64595745247003 86.82634096563983 l -24.56254315796474 -19.785846076856103 a52.54042218113008,52.54042218113008 0 0,0 0.571822886097263,-0.6975309439379506 l 24.219273452628848 20.204579302492547" fill="#82ff25" stroke="none" /><path d="M 84.10781606972428 86.27271002978789 l -11.675343037873 -10.084883241078833 a36.42784836061731,36.42784836061731 0 0,0 0.41282975588671633,-0.46972448008604406 l 11.500502218027693 10.283819998976178" fill="#ffbb11" stroke="none" /><path d="M 84.58840730492382 85.73525988315684 l -11.157720527679974 -10.327419545325212 a36.20362857475071,36.20362857475071 0 0,0 0.4260721714204027,-0.45247388097334523 l 10.9787925225233 10.517434886243068" fill="#ffb811" stroke="none" /><path d="M 85.86807049272753 84.46653392183569 l -4.981436972218924 -5.4754718517847065 a28.40239868609333,28.40239868609333 0 0,0 0.3634627547170772,-0.32501063649057366 l 4.886709190678455 5.560178018158681" fill="#ff4e07" stroke="none" /><line stroke="#e1ed5e" stroke-width="0.3" x1="56.869717070023135" x2="54.33264160355391" y1="26.7553504044142" y2="22.446841604673864" /><path d="M 56.362301976729285 25.89364864446614 a86.0,86.0 0 0,1 42.16139366436587,-11.88097634709845" fill="none" id="id24" stroke="none" /><text fill="#e1ed5e" style="font-size:6.75px; font-family:Arial;" text-anchor="middle"><textPath startOffset="22.145653131862474" xlink:href="#id24">December</textPath></text></svg>