<?xml version="1.0" encoding="utf-8" ?>
<svg baseProfile="full" height="200mm" version="1.1" viewBox="0,0,200,200" width="200mm" xmlns="http://www.w3.org/2000/svg" xmlns:ev="http://www.w3.org/2001/xml-events" xmlns:xlink="http://www.w3.org/1999/xlink"><defs /><rect fill="#1a1a1a" height="200" width="200" x="0" y="0" /><text alignment-baseline="middle" fill="#e1ed5e" style="dominant-baseline: central; font-size:9.0px; font-family:Arial;" text-anchor="middle" x="100.0" y="100.0">2026</text><line stroke="#e1ed5e" stroke-width="0.3" x1="100.0" x2="100.0" y1="15.0" y2="10.0" /><path d="M 100.0 14.0 a86.0,86.0 0 0,1 42.46469731375804,11.215312516191453" fill="none" id="id37" stroke="none" /><text fill="#e1ed5e" style="font-size:6.75px; font-family:Arial;" text-anchor="middle"><textPath startOffset="22.20632615414155" xlink:href="#id37">January</textPath></text><path d="M 101.08401301168833 79.027996857942 l 2.595589810608446 -50.215926447961216 a71.28296287503338,71.28296287503338 0 0,0 1.2248380131651928,0.07388557384164934 l -3.4595898726132512 50.16380760473926" fill="red" stroke="none" /><path d="M 101.44485096284872 79.0497635885617 l 3.4760977997491027 -50.40317137654103 a71.52289521322373,71.52289521322373 0 0,0 1.2275025295264324,0.09527782100532665 l -4.3431905186378765 50.33586829334724" fill="red" stroke="none" /><path d="M 103.95276090670814 79.375362276772 l 9.52299012188339 -49.68886961323781 a71.5931922723091,71.5931922723091 0 0,0 1.2083348664183318,0.24238060677928366 l -10.376891397768848 49.51758505038132" fill="red" stroke="none" /><path d="M 104.307194497241 79.44645832069477 l 10.304902439082728 -49.17406026557008 a71.24220553758494,71.24220553758494 0 0,0 1.1980811063308543,0.2618541253991039 l -11.14982626956711 48.989392642075096" fill="red" stroke="none" /><path d="M 106.40334571778207 80.00007090966166 l 15.494663832132703 -48.39535323865377 a71.81530106537673,71.81530106537673 0 0,0 1.174067927694107,0.38707173660912847 l -16.32541458206923 48.121467777785405" fill="red" stroke="none" /><line stroke="#e1ed5e" stroke-width="0.3" x1="143.23703022742887" x2="145.7803849466894" y1="26.81831364943548" y2="22.513508569990506" /><path d="M 143.74570117128098 25.957352633546492 a86.0,86.0 0 0,1 28.547481713284135,27.462654790039103" fill="none" id="id38" stroke="none" /><text fill="#e1ed5e" style="font-size:6.75px; font-family:Arial;" text-anchor="middle"><textPath startOffset="19.985693538727396" xlink:href="#id38">February</textPath></text><path d="M 116.82858285166822 87.43820079747576 l 40.676558035393775 -30.363266996055373 a71.75933762649493,71.75933762649493 0 0,0 0.7303644453352217,0.9962162826371699 l -41.193185093242626 29.65858826974671" fill="red" stroke="none" /><path d="M 117.04232023915458 87.72973835380427 l 41.13957539667172 -29.619989945430106 a71.69327833338279,71.69327833338279 0 0,0 0.7124515444316524,1.0077121842072108 l -41.64333956090725 28.907451260891104" fill="red" stroke="none" /><path d="M 117.2510076193507 88.02491185347247 l 41.81054076838803 -29.023516898445063 a71.89681574027361,71.89681574027361 0 0,0 0.6969729848115629,1.0227218532618043 l -42.303938218868325 28.299517021912852" fill="red" stroke="none" /><path d="M 117.45458315368197 88.32363383020206 l 42.21059709401171 -28.237075819912747 a71.78451494198296,71.78451494198296 0 0,0 0.6782042520804159,1.0329516048377143 l -42.69039798145005 27.50630615109736" fill="red" stroke="none" /><line stroke="#e1ed5e" stroke-width="0.3" x1="172.23445277983987" x2="176.4835382374775" y1="55.19839476539836" y2="52.563006222186495" /><path d="M 173.08426987136738 54.67131705675599 a86.0,86.0 0 0,1 12.851231095245387,41.99856678651699" fill="none" id="id39" stroke="none" /><text fill="#e1ed5e" style="font-size:6.75px; font-family:Arial;" text-anchor="middle"><textPath startOffset="22.20632615414155" xlink:href="#id39">March</textPath></text><path d="M 118.03404312379186 89.2402003453031 l 43.470515866571745 -25.93617185009195 a71.61986526990533,71.61986526990533 0 0,0 0.6225482628933248,1.0641367832690811 l -43.9105238039354 25.184055654468974" fill="red" stroke="none" /><path d="M 119.34039704204932 91.81776055985345 l 46.5953365968162 -19.71284250268811 a71.59369083301183,71.59369083301183 0 0,0 0.470398890034766,1.139108223924452 l -46.92775717373716 18.90785970831035" fill="red" stroke="none" /><path d="M 120.96714384426684 98.82574320788733 l 50.70605412561022 -2.8397729753025587 a71.78551206338844,71.78551206338844 0 0,0 0.05847576631025655,1.2343310053081062 l -50.74742350015398 1.9665308633714529" fill="red" stroke="none" /><line stroke="#e1ed5e" stroke-width="0.3" x1="184.98032266829074" x2="189.97916517819016" y1="98.17113171792111" y2="98.06355123074" /><path d="M 185.9800911702706 98.14961562048488 a86.0,86.0 0 0,1 -9.607161424134198,41.387399972396054" fill="none" id="id40" stroke="none" /><text fill="#e1ed5e" style="font-size:6.75px; font-family:Arial;" text-anchor="middle"><textPath startOffset="21.466115282336823" xlink:href="#id40">April</textPath></text><path d="M 120.5718875245553 104.21870165774334 l 49.30073571602716 10.110161026542263 a71.32671157669822,71.32671157669822 0 0,0 -0.25700019981310784,1.2006193737548367 l -49.11940147748961 -10.957294219713269" fill="red" stroke="none" /><path d="M 120.49622156327973 104.57218783832717 l 48.39205537114869 10.795041727886945 a70.5814879662878,70.5814879662878 0 0,0 -0.2747281372449457,1.1835216249478586 l -48.1990666679732 -11.626432010183368" fill="red" stroke="none" /><path d="M 119.67450827220406 107.3425965602758 l 48.018948830238095 17.920842728613053 a72.25403448378194,72.25403448378194 0 0,0 -0.4448980943429061,1.1614885353785778 l -47.70335645630168 -18.744754830824775" fill="red" stroke="none" /><path d="M 119.41010516605496 108.01547362559984 l 46.94967871889708 19.38804083142389 a71.79535863726741,71.79535863726741 0 0,0 -0.48153837233359065,1.13821446806096 l -46.60898936537118 -20.193329825151014" fill="red" stroke="none" /><line stroke="#e1ed5e" stroke-width="0.3" x1="174.80103733775053" x2="179.2010983576182" y1="140.37084112569926" y2="142.7455964860345" /><path d="M 175.68104954172406 140.8457921977663 a86.0,86.0 0 0,1 -30.038265399797805,32.042727171017184" fill="none" id="id41" stroke="none" /><text fill="#e1ed5e" style="font-size:6.75px; font-family:Arial;" text-anchor="middle"><textPath startOffset="22.206326154141568" xlink:href="#id41">May</textPath></text><path d="M 117.14729908036423 112.12312394758627 l 41.32744861240316 29.218466396226365 a71.61301006024274,71.61301006024274 0 0,0 -0.7202911835015484,1.0004214554364421 l -40.81837763652601 -29.92552145711394" fill="red" stroke="none" /><path d="M 116.498646956653 112.99209946851258 l 40.36936939471185 31.789446979209913 a72.3834109861412,72.3834109861412 0 0,0 -0.779266318492306,0.9722545499931774 l -39.81618516416469 -32.47962936278134" fill="red" stroke="none" /><path d="M 116.27256486870786 113.27417163493432 l 38.99910412556026 31.813104200116747 a71.32895509986052,71.32895509986052 0 0,0 -0.7842924312367444,0.9447307572792151 l -38.445715694429964 -32.47969621450973" fill="red" stroke="none" /><path d="M 116.0416608686014 113.55231037782055 l 38.68631442437599 32.68295875019393 a71.64392082381221,71.64392082381221 0 0,0 -0.8039726945642576,0.9352018763650102 l -38.117999220240954 -33.34403772572047" fill="red" stroke="none" /><path d="M 115.80600337817218 113.82643327865902 l 38.255622195317535 33.46442457095769 a71.8267679615396,71.8267679615396 0 0,0 -0.8220441922818241,0.9235753644592791 l -37.673919153387374 -34.117974105157835" fill="red" stroke="none" /><path d="M 114.81725581225074 114.88116024355365 l 44.45176743675221 44.643480730660954 a84.0,84.0 0 0,0 -1.033400190496823,1.011399588309712 l -43.67671729387959 -45.40203042189324" fill="red" stroke="none" /><line stroke="#e1ed5e" stroke-width="0.3" x1="143.8653032363475" x2="146.44561519142675" y1="172.8068346515853" y2="177.08958963109032" /><path d="M 144.38136562736335 173.6633856474863 a86.0,86.0 0 0,1 -40.68145358897372,12.25698825130547" fill="none" id="id42" stroke="none" /><text fill="#e1ed5e" style="font-size:6.75px; font-family:Arial;" text-anchor="middle"><textPath startOffset="21.466115282336833" xlink:href="#id42">June</textPath></text><line stroke="#e1ed5e" stroke-width="0.3" x1="102.19456741930631" x2="102.32365962044197" y1="184.97166512339345" y2="189.96999836594603" /><path d="M 102.22038585953345 185.97133177190398 a86.0,86.0 0 0,1 -42.740103519485714,-10.115201625700543" fill="none" id="id43" stroke="none" /><text fill="#e1ed5e" style="font-size:6.75px; font-family:Arial;" text-anchor="middle"><textPath startOffset="22.20632615414155" xlink:href="#id43">July</textPath></text><line stroke="#e1ed5e" stroke-width="0.3" x1="58.666819895761336" x2="56.23545636021788" y1="174.27360380694188" y2="178.64263932499728" /><path d="M 58.180547188652646 175.14741091055294 a86.0,86.0 0 0,1 -31.652253787137756,-30.449443065178592" fill="none" id="id44" stroke="none" /><text fill="#e1ed5e" style="font-size:6.75px; font-family:Arial;" text-anchor="middle"><textPath startOffset="22.20632615414155" xlink:href="#id44">August</textPath></text><line stroke="#e1ed5e" stroke-width="0.3" x1="26.63291911575756" x2="22.317208475507996" y1="142.92168965132927" y2="145.44649492493687" /><path d="M 25.769776987707644 143.4266507060508 a86.0,86.0 0 0,1 -11.730757126820373,-40.83630448921669" fill="none" id="id45" stroke="none" /><text fill="#e1ed5e" style="font-size:6.75px; font-family:Arial;" text-anchor="middle"><textPath startOffset="21.46611528233685" xlink:href="#id45">September</textPath></text><line stroke="#e1ed5e" stroke-width="0.3" x1="15.007084014347285" x2="10.007500721073583" y1="101.09737516637583" y2="101.16192664675087" /><path d="M 14.007167355692545 101.11028546245083 a86.0,86.0 0 0,1 10.666146001902534,-42.60595125391555" fill="none" id="id46" stroke="none" /><text fill="#e1ed5e" style="font-size:6.75px; font-family:Arial;" text-anchor="middle"><textPath startOffset="22.20632615414155" xlink:href="#id46">October</textPath></text><line stroke="#e1ed5e" stroke-width="0.3" x1="26.266209847984243" x2="21.928928074336255" y1="57.711370442889674" y2="55.22380399835377" /><path d="M 25.398753493254645 57.213857153982495 a86.0,86.0 0 0,1 29.58750427330803,-30.492523968695096" fill="none" id="id47" stroke="none" /><text fill="#e1ed5e" style="font-size:6.75px; font-family:Arial;" text-anchor="middle"><textPath startOffset="21.46611528233685" xlink:href="#id47">November</textPath></text><line stroke="#e1ed5e" stroke-width="0.3" x1="56.762969772571076" x2="54.21961505331055" y1="26.818313649435495" y2="22.513508569990535" /><path d="M 56.25429882871897 25.957352633546506 a86.0,86.0 0 0,1 42.265352541879196,-11.944610805530505" fill="none" id="id48" stroke="none" /><text fill="#e1ed5e" style="font-size:6.75px; font-family:Arial;" text-anchor="middle"><textPath startOffset="22.20632615414155" xlink:href="#id48">December</textPath></text></svg>