<?xml version="1.0" encoding="utf-8" ?>
<svg baseProfile="full" height="200mm" version="1.1" viewBox="0,0,200,200" width="200mm" xmlns="http://www.w3.org/2000/svg" xmlns:ev="http://www.w3.org/2001/xml-events" xmlns:xlink="http://www.w3.org/1999/xlink"><defs /><rect fill="#1a1a1a" height="200" width="200" x="0" y="0" /><text alignment-baseline="middle" fill="#e1ed5e" style="dominant-baseline: central; font-size:9.0px; font-family:Arial;" text-anchor="middle" x="100.0" y="100.0">2026</text><line stroke="#e1ed5e" stroke-width="0.3" x1="100.0" x2="100.0" y1="15.0" y2="10.0" /><path d="M 100.0 14.0 a86.0,86.0 0 0,1 42.46469731375804,11.215312516191453" fill="none" id="id37" stroke="none" /><text fill="#e1ed5e" style="font-size:6.75px; font-family:Arial;" text-anchor="middle"><textPath startOffset="22.20632615414155" xlink:href="#id37">January</textPath></text><path d="M 101.08401301168833 79.027996857942 l 0.6144404427129305 -11.887354447077458 a32.90322363093685,32.90322363093685 0 0,0 0.5653681810266342,0.03410455263305788 l -0.8189706725791767 11.875016625064095" fill="#ff3a05" stroke="none" /><path d="M 101.44485096284872 79.0497635885617 l 0.822878508099323 -11.93167996274334 a32.960021562372816,32.960021562372816 0 0,0 0.5656721490432352,0.04390704578428264 l -1.0281408465048993 11.915747654770593" fill="#ff3b05" stroke="none" /><path d="M 103.95276090670814 79.375362276772 l 2.254327799610701 -11.762587030616377 a32.97666261864808,32.97666261864808 0 0,0 0.5565731874151746,0.11164334542678504 l -2.456467396493001 11.722039729112383" fill="#ff3c05" stroke="none" /><path d="M 104.307194497241 79.44645832069477 l 2.4394258256466546 -11.640718897908782 a32.89357535894747,32.89357535894747 0 0,0 0.5531716888865014,0.12090190557509642 l -2.6394402386866838 11.597003494237816" fill="#ff3a05" stroke="none" /><path d="M 106.40334571778207 80.00007090966166 l 3.667970981313064 -11.456379643529457 a33.02924127517737,33.02924127517737 0 0,0 0.5399764713365786,0.17802175288002106 l -3.86463027489206 11.3915441663902" fill="#ff3c05" stroke="none" /><line stroke="#e1ed5e" stroke-width="0.3" x1="143.23703022742887" x2="145.7803849466894" y1="26.81831364943548" y2="22.513508569990506" /><path d="M 143.74570117128098 25.957352633546492 a86.0,86.0 0 0,1 28.547481713284135,27.462654790039103" fill="none" id="id38" stroke="none" /><text fill="#e1ed5e" style="font-size:6.75px; font-family:Arial;" text-anchor="middle"><textPath startOffset="19.985693538727396" xlink:href="#id38">February</textPath></text><path d="M 116.82858285166822 87.43820079747576 l 9.629149500107935 -7.1877378848601 a33.0159933420788,33.0159933420788 0 0,0 0.33603581724778225,0.458352477081328 l -9.751447929869345 7.020922964107278" fill="#ff3c05" stroke="none" /><path d="M 117.04232023915458 87.72973835380427 l 9.738757185915848 -7.011785784039711 a33.00035547004708,33.00035547004708 0 0,0 0.32794084421832037,0.4638490673518405 l -9.85801064993805 6.843110216356078" fill="#ff3c05" stroke="none" /><path d="M 117.2510076193507 88.02491185347247 l 9.89759132001417 -6.870585829579301 a33.04853781915614,33.04853781915614 0 0,0 0.3203749402572278,0.4701106926362406 l -10.014390725940132 6.699197113672654" fill="#ff3d05" stroke="none" /><path d="M 117.45458315368197 88.32363383020206 l 9.992294568124354 -6.684415733485512 a33.02195343670221,33.02195343670221 0 0,0 0.31198412709026924,0.4751732295591322 l -10.105875330572548 6.511424439948706" fill="#ff3c05" stroke="none" /><line stroke="#e1ed5e" stroke-width="0.3" x1="172.23445277983987" x2="176.4835382374775" y1="55.19839476539836" y2="52.563006222186495" /><path d="M 173.08426987136738 54.67131705675599 a86.0,86.0 0 0,1 12.851231095245387,41.99856678651699" fill="none" id="id39" stroke="none" /><text fill="#e1ed5e" style="font-size:6.75px; font-family:Arial;" text-anchor="middle"><textPath startOffset="22.20632615414155" xlink:href="#id39">March</textPath></text><path d="M 118.03404312379186 89.2402003453031 l 10.290548570058757 -6.139734733398978 a32.98297677829863,32.98297677829863 0 0,0 0.2867011103832508,0.4900651331753601 l -10.394709354912337 5.961690187869722" fill="#ff3c05" stroke="none" /><path d="M 119.34039704204932 91.81776055985345 l 11.030271089018665 -4.666518424820999 a32.976780640323796,32.976780640323796 0 0,0 0.21667050307979907,0.5246848093578755 l -11.108963278984662 4.47595904500982" fill="#ff3c05" stroke="none" /><path d="M 120.96714384426684 98.82574320788733 l 12.003379816729344 -0.6722446501437357 a33.02218948005363,33.02218948005363 0 0,0 0.026899548106357564,0.5678069455351517 l -12.013172973069198 0.46552659798558427" fill="#ff3c05" stroke="none" /><line stroke="#e1ed5e" stroke-width="0.3" x1="184.98032266829074" x2="189.97916517819016" y1="98.17113171792111" y2="98.06355123074" /><path d="M 185.9800911702706 98.14961562048488 a86.0,86.0 0 0,1 -9.607161424134198,41.387399972396054" fill="none" id="id40" stroke="none" /><text fill="#e1ed5e" style="font-size:6.75px; font-family:Arial;" text-anchor="middle"><textPath startOffset="21.466115282336823" xlink:href="#id40">April</textPath></text><path d="M 120.5718875245553 104.21870165774334 l 11.670706116822032 2.393325706418703 a32.913580032980505,32.913580032980505 0 0,0 -0.11859227010549743,0.5540236045332628 l -11.627779807992091 -2.593863130368135" fill="#ff3b05" stroke="none" /><path d="M 120.49622156327973 104.57218783832717 l 11.45559895654974 2.5554539439467736 a32.737167133211344,32.737167133211344 0 0,0 -0.1274246435478858,0.5489420293915306 l -11.4099137470713 -2.752264630686869" fill="#ff3805" stroke="none" /><path d="M 119.67450827220406 107.3425965602758 l 11.367275390461128 4.242307661616451 a33.13310034980313,33.13310034980313 0 0,0 -0.20401425762056793,0.5326168493260026 l -11.292566853247052 -4.437348077775598" fill="#ff3e05" stroke="none" /><path d="M 119.41010516605496 108.01547362559984 l 11.114152652073566 4.589629818666891 a33.02452040814893,33.02452040814893 0 0,0 -0.2214986331467784,0.5235573391204975 l -11.033503037734478 -4.780261683453552" fill="#ff3c05" stroke="none" /><line stroke="#e1ed5e" stroke-width="0.3" x1="174.80103733775053" x2="179.2010983576182" y1="140.37084112569926" y2="142.7455964860345" /><path d="M 175.68104954172406 140.8457921977663 a86.0,86.0 0 0,1 -30.038265399797805,32.042727171017184" fill="none" id="id41" stroke="none" /><text fill="#e1ed5e" style="font-size:6.75px; font-family:Arial;" text-anchor="middle"><textPath startOffset="22.206326154141568" xlink:href="#id41">May</textPath></text><path d="M 117.14729908036423 112.12312394758627 l 9.783231432723307 6.916735207741378 a32.981353980257595,32.981353980257595 0 0,0 -0.33172992549732133,0.4607438525965788 l -9.662721714850383 -7.084112665789088" fill="#ff3c05" stroke="none" /><path d="M 116.498646956653 112.99209946851258 l 9.556430334850946 7.52535003630878 a33.16372697465016,33.16372697465016 0 0,0 -0.3570345065938891,0.4454554435409043 l -9.425477916202203 -7.688733313427935" fill="#ff3f05" stroke="none" /><path d="M 116.27256486870786 113.27417163493432 l 9.232054582114314 7.530950286867614 a32.914111130521206,32.914111130521206 0 0,0 -0.36190475809456163,0.43593759490765827 l -9.10105382412621 -7.688749138889043" fill="#ff3b05" stroke="none" /><path d="M 116.0416608686014 113.55231037782055 l 9.158009507007987 7.7368664191705 a32.98867132415168,32.98867132415168 0 0,0 -0.370191785564,0.4306166799134941 l -9.023475211873208 -7.893360198245522" fill="#ff3c05" stroke="none" /><path d="M 115.80600337817218 113.82643327865902 l 9.056053981210306 7.921858748433248 a33.03195577371873,33.03195577371873 0 0,0 -0.3780446785247987,0.4247372039467323 l -8.91835045303717 -8.076570122120847" fill="#ff3c05" stroke="none" /><path d="M 114.81725581225074 114.88116024355365 l 10.522835138117483 10.568218426610061 a35.91366152413754,35.91366152413754 0 0,0 -0.44182362691050187,0.43241741047865534 l -10.339361558831186 -10.747785940011289" fill="#ff6a09" stroke="none" /><path d="M 114.29624159901734 115.38237550388516 l 10.823291642002191 11.645573773514231 a36.898522902527674,36.898522902527674 0 0,0 -0.4689634469853274,0.4283869898050895 l -10.62122864555 -11.830153529905903" fill="#ff790b" stroke="none" /><path d="M 114.0293411484842 115.62618273729858 l 6.024900099895218 6.710663668272342 a30.01844931694955,30.01844931694955 0 0,0 -0.3874633448211997,0.34189135221408457 l -5.90849440216743 -6.813378162258715" fill="#ff0c01" stroke="none" /><path d="M 113.20401910651253 116.32954008644616 l 39.612057319537584 48.98862025933848 a84.0,84.0 0 0,0 -1.1321700291305956,0.899464343979496 l -38.762929797689644 -49.6632185173231" fill="#4dd2ff" stroke="none" /><path d="M 112.63410532772338 116.77436683061366 l 7.2113063146125205 9.574488601404486 a32.98639940689425,32.98639940689425 0 0,0 -0.45649254473426787,0.3377022713989832 l -7.045428799459689 -9.697200821543237" fill="#ff3c05" stroke="none" /><line stroke="#e1ed5e" stroke-width="0.3" x1="143.8653032363475" x2="146.44561519142675" y1="172.8068346515853" y2="177.08958963109032" /><path d="M 144.38136562736335 173.6633856474863 a86.0,86.0 0 0,1 -40.68145358897372,12.25698825130547" fill="none" id="id42" stroke="none" /><text fill="#e1ed5e" style="font-size:6.75px; font-family:Arial;" text-anchor="middle"><textPath startOffset="21.466115282336833" xlink:href="#id42">June</textPath></text><path d="M 110.8373102113329 117.98757091392108 l 4.664573670680687 7.742174769237169 a30.038778550590788,30.038778550590788 0 0,0 -0.4451920476193972,0.26302730887783465 l -4.530613752032908 -7.821320650408754" fill="#ff0c01" stroke="none" /><path d="M 109.89434966115114 118.52300852407294 l 3.918599926357229 7.335930336416049 a29.31692847652282,29.31692847652282 0 0,0 -0.4471656619528716,0.23393593997938608 l -3.7917433618778618 -7.402295695340152" fill="#ff0000" stroke="none" /><line stroke="#e1ed5e" stroke-width="0.3" x1="102.19456741930631" x2="102.32365962044197" y1="184.97166512339345" y2="189.96999836594603" /><path d="M 102.22038585953345 185.97133177190398 a86.0,86.0 0 0,1 -42.740103519485714,-10.115201625700543" fill="none" id="id43" stroke="none" /><text fill="#e1ed5e" style="font-size:6.75px; font-family:Arial;" text-anchor="middle"><textPath startOffset="22.20632615414155" xlink:href="#id43">July</textPath></text><line stroke="#e1ed5e" stroke-width="0.3" x1="58.666819895761336" x2="56.23545636021788" y1="174.27360380694188" y2="178.64263932499728" /><path d="M 58.180547188652646 175.14741091055294 a86.0,86.0 0 0,1 -31.652253787137756,-30.449443065178592" fill="none" id="id44" stroke="none" /><text fill="#e1ed5e" style="font-size:6.75px; font-family:Arial;" text-anchor="middle"><textPath startOffset="22.20632615414155" xlink:href="#id44">August</textPath></text><line stroke="#e1ed5e" stroke-width="0.3" x1="26.63291911575756" x2="22.317208475507996" y1="142.92168965132927" y2="145.44649492493687" /><path d="M 25.769776987707644 143.4266507060508 a86.0,86.0 0 0,1 -11.730757126820373,-40.83630448921669" fill="none" id="id45" stroke="none" /><text fill="#e1ed5e" style="font-size:6.75px; font-family:Arial;" text-anchor="middle"><textPath startOffset="21.46611528233685" xlink:href="#id45">September</textPath></text><line stroke="#e1ed5e" stroke-width="0.3" x1="15.007084014347285" x2="10.007500721073583" y1="101.09737516637583" y2="101.16192664675087" /><path d="M 14.007167355692545 101.11028546245083 a86.0,86.0 0 0,1 10.666146001902534,-42.60595125391555" fill="none" id="id46" stroke="none" /><text fill="#e1ed5e" style="font-size:6.75px; font-family:Arial;" text-anchor="middle"><textPath startOffset="22.20632615414155" xlink:href="#id46">October</textPath></text><line stroke="#e1ed5e" stroke-width="0.3" x1="26.266209847984243" x2="21.928928074336255" y1="57.711370442889674" y2="55.22380399835377" /><path d="M 25.398753493254645 57.213857153982495 a86.0,86.0 0 0,1 29.58750427330803,-30.492523968695096" fill="none" id="id47" stroke="none" /><text fill="#e1ed5e" style="font-size:6.75px; font-family:Arial;" text-anchor="middle"><textPath startOffset="21.46611528233685" xlink:href="#id47">November</textPath></text><line stroke="#e1ed5e" stroke-width="0.3" x1="56.762969772571076" x2="54.21961505331055" y1="26.818313649435495" y2="22.513508569990535" /><path d="M 56.25429882871897 25.957352633546506 a86.0,86.0 0 0,1 42.265352541879196,-11.944610805530505" fill="none" id="id48" stroke="none" /><text fill="#e1ed5e" style="font-size:6.75px; font-family:Arial;" text-anchor="middle"><textPath startOffset="22.20632615414155" xlink:href="#id48">December</textPath></text></svg>