<?xml version="1.0" encoding="utf-8" ?>
<svg baseProfile="full" height="200mm" version="1.1" viewBox="0,0,200,200" width="200mm" xmlns="http://www.w3.org/2000/svg" xmlns:ev="http://www.w3.org/2001/xml-events" xmlns:xlink="http://www.w3.org/1999/xlink"><defs /><rect fill="#1a1a1a" height="200" width="200" x="0" y="0" /><text alignment-baseline="middle" fill="#e1ed5e" style="dominant-baseline: central; font-size:9.0px; font-family:Arial;" text-anchor="middle" x="100.0" y="100.0">2025</text><line stroke="#e1ed5e" stroke-width="0.3" x1="100.0" x2="100.0" y1="15.0" y2="10.0" /><path d="M 100.0 14.0 a86.0,86.0 0 0,1 42.46469731375804,11.215312516191453" fill="none" id="id25" stroke="none" /><text fill="#e1ed5e" style="font-size:6.75px; font-family:Arial;" text-anchor="middle"><textPath startOffset="22.20632615414155" xlink:href="#id25">January</textPath></text><line stroke="#e1ed5e" stroke-width="0.3" x1="143.23703022742887" x2="145.7803849466894" y1="26.81831364943548" y2="22.513508569990506" /><path d="M 143.74570117128098 25.957352633546492 a86.0,86.0 0 0,1 28.547481713284135,27.462654790039103" fill="none" id="id26" stroke="none" /><text fill="#e1ed5e" style="font-size:6.75px; font-family:Arial;" text-anchor="middle"><textPath startOffset="19.985693538727396" xlink:href="#id26">February</textPath></text><path d="M 115.19652480421416 85.50635884689758 l 17.829025831222797 -17.00438131983159 a45.63783972187187,45.63783972187187 0 0,0 0.5372935873295793,0.5731473372511973 l -18.11908674052284 16.69496456570234" fill="red" stroke="none" /><path d="M 115.68641384162765 86.03803664274999 l 29.05356682340144 -25.859628560179246 a59.89511710269415,59.89511710269415 0 0,0 0.6788345334475613,0.7760252201450404 l -29.49439322042685 25.355687783831257" fill="red" stroke="none" /><path d="M 116.15771136456269 86.58626213691792 l 47.801051495790084 -39.68326700961396 a83.12650162901087,83.12650162901087 0 0,0 0.9045014747924686,1.1088118586373303 l -48.47705146265896 38.854570981368525" fill="red" stroke="none" /><line stroke="#e1ed5e" stroke-width="0.3" x1="172.23445277983987" x2="176.4835382374775" y1="55.19839476539836" y2="52.563006222186495" /><path d="M 173.08426987136738 54.67131705675599 a86.0,86.0 0 0,1 12.851231095245387,41.99856678651699" fill="none" id="id27" stroke="none" /><text fill="#e1ed5e" style="font-size:6.75px; font-family:Arial;" text-anchor="middle"><textPath startOffset="22.20632615414155" xlink:href="#id27">March</textPath></text><path d="M 119.34039704204932 91.81776055985345 l 37.125160034516334 -15.706345014310237 a61.31087671208599,61.31087671208599 0 0,0 0.40283673067914044,0.9755010960623955 l -37.39001845208167 15.064969347794538" fill="red" stroke="none" /><path d="M 119.85752413597 93.16781622104841 l 23.60973039415459 -8.123168624641014 a45.96808438364904,45.96808438364904 0 0,0 0.25099166455032546,0.7504331301834112 l -23.746059352476685 7.71556239153529" fill="red" stroke="none" /><path d="M 120.73433829027371 96.67025291283417 l 35.94740393993569 -5.772827754832308 a57.407985254719414,57.407985254719414 0 0,0 0.14828785093295718,0.9770316612294752 l -36.04144768430795 5.15319698121075" fill="red" stroke="none" /><line stroke="#e1ed5e" stroke-width="0.3" x1="184.98032266829074" x2="189.97916517819016" y1="98.17113171792111" y2="98.06355123074" /><path d="M 185.9800911702706 98.14961562048488 a86.0,86.0 0 0,1 -9.607161424134198,41.387399972396054" fill="none" id="id28" stroke="none" /><text fill="#e1ed5e" style="font-size:6.75px; font-family:Arial;" text-anchor="middle"><textPath startOffset="21.466115282336823" xlink:href="#id28">April</textPath></text><path d="M 120.49622156327973 104.57218783832717 l 61.25775989011347 13.66505450324205 a83.76341977084559,83.76341977084559 0 0,0 -0.32603688227573624,1.4045583556658867 l -61.01346244190719 -14.717481516256502" fill="red" stroke="none" /><path d="M 120.41448212921028 104.9243191809786 l 30.187111424333665 7.281643044595565 a52.0529229151467,52.0529229151467 0 0,0 -0.2176027471343447,0.8692148068731093 l -30.057297362904258 -7.800185690866071" fill="red" stroke="none" /><path d="M 119.79798401119884 107.00284435728193 l 30.264016982698582 10.704837443857583 a53.1014683251169,53.1014683251169 0 0,0 -0.31222585919768353,0.859111468841315 l -30.07526686249567 -11.22419670970503" fill="red" stroke="none" /><path d="M 119.54520255179757 107.68017299344265 l 29.259234438955588 11.497244991518732 a52.43707114775114,52.43707114775114 0 0,0 -0.33733862990763297,0.8372468144910629 l -29.05699319479056 -11.999191173852608" fill="red" stroke="none" /><line stroke="#e1ed5e" stroke-width="0.3" x1="174.80103733775053" x2="179.2010983576182" y1="140.37084112569926" y2="142.7455964860345" /><path d="M 175.68104954172406 140.8457921977663 a86.0,86.0 0 0,1 -30.038265399797805,32.042727171017184" fill="none" id="id29" stroke="none" /><text fill="#e1ed5e" style="font-size:6.75px; font-family:Arial;" text-anchor="middle"><textPath startOffset="22.206326154141568" xlink:href="#id29">May</textPath></text><path d="M 117.55443506779139 111.5257021239791 l 26.653938566684328 17.500156237673398 a52.88554389467994,52.88554389467994 0 0,0 -0.5061823853093176,0.7566739863095135 l -26.34875307596429 -17.956367138188718" fill="red" stroke="none" /><path d="M 115.56566222782051 114.09645910891815 l 18.417237441546316 16.678881418227043 a45.84712700377198,45.84712700377198 0 0,0 -0.5347818306023943,0.5804000564246009 l -18.1274092029482 -16.993432729452977" fill="red" stroke="none" /><path d="M 115.32070863581623 114.36230785411682 l 18.098129841652277 16.965984965077322 a45.806993965423025,45.806993965423025 0 0,0 -0.5442164235903025,0.5706087443858431 l -17.80340686668301 -17.275000826045673" fill="red" stroke="none" /><path d="M 114.0293411484842 115.62618273729858 l 42.088023445452606 46.878548211895726 a84.0,84.0 0 0,0 -1.0842305883736492,0.9567074329108447 l -41.27485050417237 -47.59607878657886" fill="red" stroke="none" /><path d="M 113.48314897796784 116.09983520530334 l 39.88467038558536 47.6251224009355 a83.12036071587865,83.12036071587865 0 0,0 -1.1048274096162911,0.9091977418471126 l -39.05897284742438 -48.304615261639796" fill="red" stroke="none" /><path d="M 112.63410532772338 116.77436683061366 l 37.41448992300158 49.67541131476535 a83.18915134884463,83.18915134884463 0 0,0 -1.1512389371475722,0.8516590434658676 l -36.553866015435446 -50.312080306970984" fill="red" stroke="none" /><path d="M 112.04921762599082 117.19931262002967 l 35.67123490851602 50.91788859474866 a83.16967410921315,83.16967410921315 0 0,0 -1.1795959448375033,0.8113368469893225 l -34.78948207905563 -51.52436623110307" fill="red" stroke="none" /><line stroke="#e1ed5e" stroke-width="0.3" x1="143.8653032363475" x2="146.44561519142675" y1="172.8068346515853" y2="177.08958963109032" /><path d="M 144.38136562736335 173.6633856474863 a86.0,86.0 0 0,1 -40.68145358897372,12.25698825130547" fill="none" id="id30" stroke="none" /><text fill="#e1ed5e" style="font-size:6.75px; font-family:Arial;" text-anchor="middle"><textPath startOffset="21.466115282336833" xlink:href="#id30">June</textPath></text><path d="M 107.2578585660854 119.70592522655815 l 8.602222462657688 23.35602865333606 a45.889803248569635,45.889803248569635 0 0,0 -0.7435905910494428,0.26662513026430507 l -8.198912310978509 -23.500641324640327" fill="red" stroke="none" /><path d="M 106.91757812671514 119.82793768551818 l 8.199177940224638 23.50140270095487 a45.89060963110215,45.89060963110215 0 0,0 -0.7480830786042221,0.2537903967609729 l -7.7934251286831895 -23.639056084613966" fill="red" stroke="none" /><path d="M 102.70371172650421 120.8252237178851 l 3.1754391404417786 24.458683909963746 a45.6639541100402,45.6639541100402 0 0,0 -0.7803590897682686,0.09449061819817312 l -2.7539526276221293 -24.509720056887268" fill="red" stroke="none" /><line stroke="#e1ed5e" stroke-width="0.3" x1="102.19456741930631" x2="102.32365962044197" y1="184.97166512339345" y2="189.96999836594603" /><path d="M 102.22038585953345 185.97133177190398 a86.0,86.0 0 0,1 -42.740103519485714,-10.115201625700543" fill="none" id="id31" stroke="none" /><text fill="#e1ed5e" style="font-size:6.75px; font-family:Arial;" text-anchor="middle"><textPath startOffset="22.20632615414155" xlink:href="#id31">July</textPath></text><path d="M 100.18074693466247 120.99922214144158 l 0.2155035169990254 25.037250198325477 a46.03817763455216,46.03817763455216 0 0,0 -0.7925009033229445,0.0 l 0.21550351699900816 -25.037250198325477" fill="red" stroke="none" /><path d="M 95.16358092515715 120.4354850818985 l -5.720791379139192 24.172253288214307 a45.839993619830516,45.839993619830516 0 0,0 -0.7662847232206519,-0.1883341413529463 l 6.136029387103054 -24.070197888547334" fill="red" stroke="none" /><path d="M 94.81253420990036 120.34920634021253 l -6.158277866133342 24.157473430953274 a45.930060345769746,45.930060345769746 0 0,0 -0.7644283358615028,-0.20189247128205123 l 6.573196644806334 -24.04788961036764" fill="red" stroke="none" /><path d="M 93.08242187328487 119.8279376855182 l -8.397194326703376 24.068979459741207 a46.49173679437836,46.49173679437836 0 0,0 -0.7533442201656273,-0.27012243464786545 l 8.810258107498731 -23.920869484053387" fill="red" stroke="none" /><path d="M 92.7421414339146 119.70592522655815 l -8.626854877736243 23.422908508498285 a45.961075058558734,45.961075058558734 0 0,0 -0.7400384839605014,-0.2798192320579576 l 9.028763582457028 -23.270941026333695" fill="red" stroke="none" /><path d="M 92.06813273071674 119.44442032107085 l -9.530241061097863 23.362722378215004 a46.231771471781045,46.231771471781045 0 0,0 -0.7342673935157139,-0.30692383004041834 l 9.93097991411104 -23.195213505154612" fill="red" stroke="none" /><path d="M 90.7491055286396 118.85261126421891 l -11.119851193009653 22.66140128468502 a46.24262662125719,46.24262662125719 0 0,0 -0.7115773376735435,-0.35679964921272794 l 11.508282438365958 -22.466633794562988" fill="red" stroke="none" /><path d="M 90.10565033884886 118.52300852407294 l -11.88476961121065 22.249232779740463 a46.22451402898842,46.22451402898842 0 0,0 -0.698600299298044,-0.3809325843132523 l 12.265992722377334 -22.041359543667447" fill="red" stroke="none" /><line stroke="#e1ed5e" stroke-width="0.3" x1="58.666819895761336" x2="56.23545636021788" y1="174.27360380694188" y2="178.64263932499728" /><path d="M 58.180547188652646 175.14741091055294 a86.0,86.0 0 0,1 -31.652253787137756,-30.449443065178592" fill="none" id="id32" stroke="none" /><text fill="#e1ed5e" style="font-size:6.75px; font-family:Arial;" text-anchor="middle"><textPath startOffset="22.20632615414155" xlink:href="#id32">August</textPath></text><path d="M 89.7882731507175 118.34994917583269 l -12.22026528586589 21.959189686569765 a46.1304774198122,46.1304774198122 0 0,0 -0.6905320218776844,-0.39210210380088756 l 12.596446074664783 -21.745584416974243" fill="red" stroke="none" /><path d="M 88.24862548938628 117.40417183066458 l -14.121302781223465 20.914113481387087 a46.23512106076225,46.23512106076225 0 0,0 -0.6557529760273927,-0.45103287638651157 l 14.479212641873747 -20.667939815635474" fill="red" stroke="none" /><path d="M 87.95078237400918 117.19931262002967 l -14.476080654624969 20.66346914961501 a46.22966247131139,46.22966247131139 0 0,0 -0.6478155384798492,-0.46219918613603705 l 14.829623520953705 -20.411225701634756" fill="red" stroke="none" /><path d="M 86.79598089348748 116.32954008644616 l -16.494522649509992 20.398938129309357 a47.23329857716313,47.23329857716313 0 0,0 -0.6278202171549466,-0.5166532969357406 l 16.843212995209626 -20.111989713516433" fill="red" stroke="none" /><path d="M 84.43433777217949 114.09645910891817 l -18.664596798052084 16.902893156575065 a46.180845313381525,46.180845313381525 0 0,0 -0.5285313088966791,-0.5938105284673604 l 18.952786956597105 -16.579108458366843" fill="red" stroke="none" /><path d="M 83.06392112726016 112.41649034213515 l -19.757716487200426 14.48514132399535 a45.49870772030046,45.49870772030046 0 0,0 -0.45763078530111495,-0.6356091352636671 l 20.00412706487715 -14.142898583280546" fill="red" stroke="none" /><line stroke="#e1ed5e" stroke-width="0.3" x1="26.63291911575756" x2="22.317208475507996" y1="142.92168965132927" y2="145.44649492493687" /><path d="M 25.769776987707644 143.4266507060508 a86.0,86.0 0 0,1 -11.730757126820373,-40.83630448921669" fill="none" id="id33" stroke="none" /><text fill="#e1ed5e" style="font-size:6.75px; font-family:Arial;" text-anchor="middle"><textPath startOffset="21.46611528233685" xlink:href="#id33">September</textPath></text><path d="M 81.51974371655577 109.97397251340807 l -21.809659919243234 11.770883759668726 a45.783360754277815,45.783360754277815 0 0,0 -0.3683325697366869,-0.6967464121886818 l 22.009044997204807 -11.393722332393917" fill="red" stroke="none" /><path d="M 81.35079622478065 109.6543875284942 l -22.01449848007951 11.39654551121093 a45.789501667410036,45.789501667410036 0 0,0 -0.3563324415386717,-0.7030777124232976 l 22.20740959140445 -11.015913587084947" fill="red" stroke="none" /><path d="M 81.18737489456691 109.33194174019688 l -22.917962678913714 11.3683811443127 a46.58267193227569,46.58267193227569 0 0,0 -0.3501391934616502,-0.7213904463343811 l 23.110255128990083 -10.972201742013034" fill="red" stroke="none" /><path d="M 80.73074385275274 108.34839909993369 l -23.071153370005785 9.995569863038204 a46.14337954033242,46.14337954033242 0 0,0 -0.30948808251080073,-0.7315384057538873 l 23.239792433708892 -9.596956931618157" fill="red" stroke="none" /><path d="M 80.45479744820244 107.68017299344265 l -23.185741817055487 9.110701598736128 a45.91151354752193,45.91151354752193 0 0,0 -0.28269625401022336,-0.7380307135554097 l 23.33913235065922 -8.71024731834756" fill="red" stroke="none" /><path d="M 80.32549172779594 107.34259656027581 l -23.408520719483267 8.73614330472758 a45.98557668166204,45.98557668166204 0 0,0 -0.2703858601842448,-0.7439857611208957 l 23.555430840672734 -8.331909746600568" fill="red" stroke="none" /><line stroke="#e1ed5e" stroke-width="0.3" x1="15.007084014347285" x2="10.007500721073583" y1="101.09737516637583" y2="101.16192664675087" /><path d="M 14.007167355692545 101.11028546245083 a86.0,86.0 0 0,1 10.666146001902534,-42.60595125391555" fill="none" id="id34" stroke="none" /><text fill="#e1ed5e" style="font-size:6.75px; font-family:Arial;" text-anchor="middle"><textPath startOffset="22.20632615414155" xlink:href="#id34">October</textPath></text><line stroke="#e1ed5e" stroke-width="0.3" x1="26.266209847984243" x2="21.928928074336255" y1="57.711370442889674" y2="55.22380399835377" /><path d="M 25.398753493254645 57.213857153982495 a86.0,86.0 0 0,1 29.58750427330803,-30.492523968695096" fill="none" id="id35" stroke="none" /><text fill="#e1ed5e" style="font-size:6.75px; font-family:Arial;" text-anchor="middle"><textPath startOffset="21.46611528233685" xlink:href="#id35">November</textPath></text><line stroke="#e1ed5e" stroke-width="0.3" x1="56.762969772571076" x2="54.21961505331055" y1="26.818313649435495" y2="22.513508569990535" /><path d="M 56.25429882871897 25.957352633546506 a86.0,86.0 0 0,1 42.265352541879196,-11.944610805530505" fill="none" id="id36" stroke="none" /><text fill="#e1ed5e" style="font-size:6.75px; font-family:Arial;" text-anchor="middle"><textPath startOffset="22.20632615414155" xlink:href="#id36">December</textPath></text></svg>