<?xml version="1.0" encoding="utf-8" ?>
<svg baseProfile="full" height="200mm" version="1.1" viewBox="0,0,200,200" width="200mm" xmlns="http://www.w3.org/2000/svg" xmlns:ev="http://www.w3.org/2001/xml-events" xmlns:xlink="http://www.w3.org/1999/xlink"><defs /><rect fill="#1a1a1a" height="200" width="200" x="0" y="0" /><text alignment-baseline="middle" fill="#e1ed5e" style="dominant-baseline: central; font-size:9.0px; font-family:Arial;" text-anchor="middle" x="100.0" y="100.0">2026</text><line stroke="#e1ed5e" stroke-width="0.3" x1="100.0" x2="100.0" y1="15.0" y2="10.0" /><path d="M 100.0 14.0 a86.0,86.0 0 0,1 42.46469731375804,11.215312516191453" fill="none" id="id37" stroke="none" /><text fill="#e1ed5e" style="font-size:6.75px; font-family:Arial;" text-anchor="middle"><textPath startOffset="22.20632615414155" xlink:href="#id37">January</textPath></text><path d="M 101.08401301168833 79.027996857942 l 2.434801530195 -47.105214412517114 a68.16809815267783,68.16809815267783 0 0,0 1.171316041519643,0.0706569823498252 l -3.245279620554255 47.056324160786986" fill="red" stroke="none" /><path d="M 101.44485096284872 79.0497635885617 l 3.26076493571709 -47.280860131561006 a68.39316746901643,68.39316746901643 0 0,0 1.173788977924662,0.0911086156212463 l -4.074144103004093 47.2177262537513" fill="red" stroke="none" /><path d="M 103.95276090670814 79.375362276772 l 8.933072100232296 -46.6108070210104 a68.4591098557255,68.4591098557255 0 0,0 1.1554384814690142,0.23177008958180384 l -9.734076991168434 46.450132975351394" fill="red" stroke="none" /><path d="M 104.307194497241 79.44645832069477 l 9.666547512492828 -46.12788842488359 a68.12986559868159,68.12986559868159 0 0,0 1.1457408446960315,0.25041457146479623 l -10.459131081342388 45.95466035532292" fill="red" stroke="none" /><path d="M 106.40334571778207 80.00007090966166 l 14.534820199301894 -45.39741974568002 a68.66745973713611,68.66745973713611 0 0,0 1.1226056419398096,0.37010543010596586 l -15.314108663484122 45.14050059131481" fill="red" stroke="none" /><line stroke="#e1ed5e" stroke-width="0.3" x1="143.23703022742887" x2="145.7803849466894" y1="26.81831364943548" y2="22.513508569990506" /><path d="M 143.74570117128098 25.957352633546492 a86.0,86.0 0 0,1 28.547481713284135,27.462654790039103" fill="none" id="id38" stroke="none" /><text fill="#e1ed5e" style="font-size:6.75px; font-family:Arial;" text-anchor="middle"><textPath startOffset="19.985693538727396" xlink:href="#id38">February</textPath></text><path d="M 116.82858285166822 87.43820079747576 l 38.156778603020534 -28.48236213656 a68.61496304984466,68.61496304984466 0 0,0 0.6983610926070407,0.9525637454820223 l -38.6414023081412 27.821335947406485" fill="red" stroke="none" /><path d="M 117.04232023915458 87.72973835380427 l 38.59111355654004 -27.785128662755824 a68.55299591339818,68.55299591339818 0 0,0 0.6812450057981994,0.9635727484046677 l -39.06367118214212 27.116729414019364" fill="red" stroke="none" /><path d="M 117.2510076193507 88.02491185347247 l 39.22051482290571 -27.22560516579049 a68.74392484512856,68.74392484512856 0 0,0 0.6664086301131182,0.9778724341851154 l -39.68334791868756 26.54645470833497" fill="red" stroke="none" /><path d="M 117.45458315368197 88.32363383020206 l 39.595788970543225 -26.487881534116255 a68.63858071316955,68.63858071316955 0 0,0 0.6484821598928323,0.9876828193204886 l -40.04586776579398 25.802380650818094" fill="red" stroke="none" /><line stroke="#e1ed5e" stroke-width="0.3" x1="172.23445277983987" x2="176.4835382374775" y1="55.19839476539836" y2="52.563006222186495" /><path d="M 173.08426987136738 54.67131705675599 a86.0,86.0 0 0,1 12.851231095245387,41.99856678651699" fill="none" id="id39" stroke="none" /><text fill="#e1ed5e" style="font-size:6.75px; font-family:Arial;" text-anchor="middle"><textPath startOffset="22.20632615414155" xlink:href="#id39">March</textPath></text><path d="M 118.03404312379186 89.2402003453031 l 40.777659905161926 -24.32951102285347 a68.48413054855484,68.48413054855484 0 0,0 0.5952912135214192,1.0175456503901255 l -41.190410793153674 23.62398596010945" fill="red" stroke="none" /><path d="M 119.34039704204932 91.81776055985345 l 43.70890823434256 -18.491696528422892 a68.459577532227,68.459577532227 0 0,0 0.4498065249704887,1.0892421785495594 l -44.020736446199244 17.73657977942003" fill="red" stroke="none" /><path d="M 120.96714384426684 98.82574320788733 l 47.564980287176226 -2.6638583482696987 a68.63951606617252,68.63951606617252 0 0,0 0.055913069166245714,1.1802365189650983 l -47.603786964575974 1.8447107226816009" fill="red" stroke="none" /><line stroke="#e1ed5e" stroke-width="0.3" x1="184.98032266829074" x2="189.97916517819016" y1="98.17113171792111" y2="98.06355123074" /><path d="M 185.9800911702706 98.14961562048488 a86.0,86.0 0 0,1 -9.607161424134198,41.387399972396054" fill="none" id="id40" stroke="none" /><text fill="#e1ed5e" style="font-size:6.75px; font-family:Arial;" text-anchor="middle"><textPath startOffset="21.466115282336823" xlink:href="#id40">April</textPath></text><path d="M 120.5718875245553 104.21870165774334 l 46.24671674642748 9.483869692096116 a68.20913676568293,68.20913676568293 0 0,0 -0.24576713815006332,1.148142249343877 l -46.07661556955298 -10.278525760856162" fill="red" stroke="none" /><path d="M 120.49622156327973 104.57218783832717 l 45.394326170256456 10.126324279034169 a67.51007731509148,67.51007731509148 0 0,0 -0.26277311970096195,1.1320197222602548 l -45.213292484624944 -10.906212658642987" fill="red" stroke="none" /><path d="M 119.67450827220406 107.3425965602758 l 45.04433235651053 16.81070526616938 a69.079015058441,69.079015058441 0 0,0 -0.42534818129060514,1.1104498814337171 l -44.74828989562642 -17.58357871443624" fill="red" stroke="none" /><path d="M 119.41010516605496 108.01547362559984 l 44.04130002349541 18.187015255992314 a68.6487526770768,68.6487526770768 0 0,0 -0.4604337836637202,1.0883294546400963 l -43.72171525863938 -18.942419236298576" fill="red" stroke="none" /><line stroke="#e1ed5e" stroke-width="0.3" x1="174.80103733775053" x2="179.2010983576182" y1="140.37084112569926" y2="142.7455964860345" /><path d="M 175.68104954172406 140.8457921977663 a86.0,86.0 0 0,1 -30.038265399797805,32.042727171017184" fill="none" id="id41" stroke="none" /><text fill="#e1ed5e" style="font-size:6.75px; font-family:Arial;" text-anchor="middle"><textPath startOffset="22.206326154141568" xlink:href="#id41">May</textPath></text><path d="M 117.14729908036423 112.12312394758627 l 38.767348642406084 27.40847818122947 a68.47769999665945,68.47769999665945 0 0,0 -0.6887559052826473,0.9566217121437652 l -38.28981294474784 -28.071733498824365" fill="red" stroke="none" /><path d="M 116.498646956653 112.99209946851258 l 37.86861929166326 29.820194944781782 a69.2003771105758,69.2003771105758 0 0,0 -0.7449983687500225,0.9295000137515322 l -37.34970301085838 -30.467622792111566" fill="red" stroke="none" /><path d="M 116.27256486870786 113.27417163493432 l 36.583237464200586 29.8423866784019 a68.21124130993961,68.21124130993961 0 0,0 -0.7500118319377064,0.90343756707885 l -36.06412963236934 -30.46768550259452" fill="red" stroke="none" /><path d="M 116.0416608686014 113.55231037782055 l 36.28982405967879 30.658356590488484 a68.50669593975138,68.50669593975138 0 0,0 -0.7687674306075967,0.8942502008506582 l -35.756714119500415 -31.27848389050067" fill="red" stroke="none" /><path d="M 115.80600337817218 113.82643327865902 l 35.88581180239967 31.391413165304005 a68.67821629667021,68.67821629667021 0 0,0 -0.7860095956591409,0.8830901131535585 l -35.340143357092195 -32.00447744819843" fill="red" stroke="none" /><path d="M 114.81725581225074 114.88116024355365 l 41.69812615711628 41.87796344090431 a80.09735651425115,80.09735651425115 0 0,0 -0.9853883747633224,0.9644099214667837 l -40.97108782997716 -42.58952346529367" fill="red" stroke="none" /><path d="M 114.29624159901734 115.38237550388516 l 42.88872479705202 46.14712651165547 a84.0,84.0 0 0,0 -1.0676018021325442,0.9752289336536681 l -42.088023445452606 -46.878548211895726" fill="red" stroke="none" /><path d="M 114.0293411484842 115.62618273729858 l 23.874463597687544 26.591892447690334 a56.736798346058336,56.736798346058336 0 0,0 -0.7323306220617133,0.6461966273480683 l -23.41319062271924 -26.99891221681069" fill="red" stroke="none" /><line stroke="#e1ed5e" stroke-width="0.3" x1="143.8653032363475" x2="146.44561519142675" y1="172.8068346515853" y2="177.08958963109032" /><path d="M 144.38136562736335 173.6633856474863 a86.0,86.0 0 0,1 -40.68145358897372,12.25698825130547" fill="none" id="id42" stroke="none" /><text fill="#e1ed5e" style="font-size:6.75px; font-family:Arial;" text-anchor="middle"><textPath startOffset="21.466115282336833" xlink:href="#id42">June</textPath></text><line stroke="#e1ed5e" stroke-width="0.3" x1="102.19456741930631" x2="102.32365962044197" y1="184.97166512339345" y2="189.96999836594603" /><path d="M 102.22038585953345 185.97133177190398 a86.0,86.0 0 0,1 -42.740103519485714,-10.115201625700543" fill="none" id="id43" stroke="none" /><text fill="#e1ed5e" style="font-size:6.75px; font-family:Arial;" text-anchor="middle"><textPath startOffset="22.20632615414155" xlink:href="#id43">July</textPath></text><line stroke="#e1ed5e" stroke-width="0.3" x1="58.666819895761336" x2="56.23545636021788" y1="174.27360380694188" y2="178.64263932499728" /><path d="M 58.180547188652646 175.14741091055294 a86.0,86.0 0 0,1 -31.652253787137756,-30.449443065178592" fill="none" id="id44" stroke="none" /><text fill="#e1ed5e" style="font-size:6.75px; font-family:Arial;" text-anchor="middle"><textPath startOffset="22.20632615414155" xlink:href="#id44">August</textPath></text><line stroke="#e1ed5e" stroke-width="0.3" x1="26.63291911575756" x2="22.317208475507996" y1="142.92168965132927" y2="145.44649492493687" /><path d="M 25.769776987707644 143.4266507060508 a86.0,86.0 0 0,1 -11.730757126820373,-40.83630448921669" fill="none" id="id45" stroke="none" /><text fill="#e1ed5e" style="font-size:6.75px; font-family:Arial;" text-anchor="middle"><textPath startOffset="21.46611528233685" xlink:href="#id45">September</textPath></text><line stroke="#e1ed5e" stroke-width="0.3" x1="15.007084014347285" x2="10.007500721073583" y1="101.09737516637583" y2="101.16192664675087" /><path d="M 14.007167355692545 101.11028546245083 a86.0,86.0 0 0,1 10.666146001902534,-42.60595125391555" fill="none" id="id46" stroke="none" /><text fill="#e1ed5e" style="font-size:6.75px; font-family:Arial;" text-anchor="middle"><textPath startOffset="22.20632615414155" xlink:href="#id46">October</textPath></text><line stroke="#e1ed5e" stroke-width="0.3" x1="26.266209847984243" x2="21.928928074336255" y1="57.711370442889674" y2="55.22380399835377" /><path d="M 25.398753493254645 57.213857153982495 a86.0,86.0 0 0,1 29.58750427330803,-30.492523968695096" fill="none" id="id47" stroke="none" /><text fill="#e1ed5e" style="font-size:6.75px; font-family:Arial;" text-anchor="middle"><textPath startOffset="21.46611528233685" xlink:href="#id47">November</textPath></text><line stroke="#e1ed5e" stroke-width="0.3" x1="56.762969772571076" x2="54.21961505331055" y1="26.818313649435495" y2="22.513508569990535" /><path d="M 56.25429882871897 25.957352633546506 a86.0,86.0 0 0,1 42.265352541879196,-11.944610805530505" fill="none" id="id48" stroke="none" /><text fill="#e1ed5e" style="font-size:6.75px; font-family:Arial;" text-anchor="middle"><textPath startOffset="22.20632615414155" xlink:href="#id48">December</textPath></text></svg>