<?xml version="1.0" encoding="utf-8" ?>
<svg baseProfile="full" height="200mm" version="1.1" viewBox="0,0,200,200" width="200mm" xmlns="http://www.w3.org/2000/svg" xmlns:ev="http://www.w3.org/2001/xml-events" xmlns:xlink="http://www.w3.org/1999/xlink"><defs /><rect fill="#1a1a1a" height="200" width="200" x="0" y="0" /><text alignment-baseline="middle" fill="#e1ed5e" style="dominant-baseline: central; font-size:9.0px; font-family:Arial;" text-anchor="middle" x="100.0" y="100.0">2026</text><line stroke="#e1ed5e" stroke-width="0.3" x1="100.0" x2="100.0" y1="15.0" y2="10.0" /><path d="M 100.0 14.0 a86.0,86.0 0 0,1 42.46469731375804,11.215312516191453" fill="none" id="id37" stroke="none" /><text fill="#e1ed5e" style="font-size:6.75px; font-family:Arial;" text-anchor="middle"><textPath startOffset="22.20632615414155" xlink:href="#id37">January</textPath></text><path d="M 101.08401301168833 79.027996857942 l 3.1823920391823792 -61.56857447775945 a82.65076627516046,82.65076627516046 0 0,0 1.4201682459316667,0.08566842690585076 l -4.241722333953658 61.50467278147329" fill="red" stroke="none" /><path d="M 101.44485096284872 79.0497635885617 l 4.26196231782392 -61.79815111103723 a82.94494171069292,82.94494171069292 0 0,0 1.4235319397763087,0.11049347605474892 l -5.3250844469625696 61.71563237279401" fill="red" stroke="none" /><path d="M 103.95276090670814 79.375362276772 l 11.675915751106283 -60.92236240366163 a83.03113129284372,83.03113129284372 0 0,0 1.4013819995299586,0.28110404558833807 l -12.722864160103367 60.71235440199609" fill="red" stroke="none" /><path d="M 104.307194497241 79.44645832069477 l 12.634600179371363 -60.29116668736683 a82.60079465572196,82.60079465572196 0 0,0 1.3890986487318377,0.30360316161792805 l -13.670541552256728 60.064750027653034" fill="red" stroke="none" /><path d="M 106.40334571778207 80.00007090966166 l 18.997645401307537 -59.33641219064884 a83.30345369602236,83.30345369602236 0 0,0 1.3618812676370406,0.44899084191409216 l -20.016209491186995 59.00060762447551" fill="red" stroke="none" /><line stroke="#e1ed5e" stroke-width="0.3" x1="143.23703022742887" x2="145.7803849466894" y1="26.81831364943548" y2="22.513508569990506" /><path d="M 143.74570117128098 25.957352633546492 a86.0,86.0 0 0,1 28.547481713284135,27.462654790039103" fill="none" id="id38" stroke="none" /><text fill="#e1ed5e" style="font-size:6.75px; font-family:Arial;" text-anchor="middle"><textPath startOffset="19.985693538727396" xlink:href="#id38">February</textPath></text><path d="M 116.82858285166822 87.43820079747576 l 49.87257768700841 -37.2276924408039 a83.23483823079945,83.23483823079945 0 0,0 0.847161755776286,1.1555276828193242 l -50.506002055298325 36.36370231431308" fill="red" stroke="none" /><path d="M 117.04232023915458 87.72973835380427 l 50.44027245854425 -36.31637781044544 a83.15384447452298,83.15384447452298 0 0,0 0.8263408550773128,1.168800537352892 l -51.057925933425444 35.44275077276075" fill="red" stroke="none" /><path d="M 117.2510076193507 88.02491185347247 l 51.26292742844357 -35.58505613991266 a83.40339693489936,83.40339693489936 0 0,0 0.8085186236221363,1.1864013142074314 l -51.86787051773444 34.69737680243482" fill="red" stroke="none" /><path d="M 117.45458315368197 88.32363383020206 l 51.753427144803176 -34.620819103159704 a83.26570754922936,83.26570754922936 0 0,0 0.7866760255747685,1.198161557690235 l -52.34169980573587 33.72483948149179" fill="red" stroke="none" /><line stroke="#e1ed5e" stroke-width="0.3" x1="172.23445277983987" x2="176.4835382374775" y1="55.19839476539836" y2="52.563006222186495" /><path d="M 173.08426987136738 54.67131705675599 a86.0,86.0 0 0,1 12.851231095245387,41.99856678651699" fill="none" id="id39" stroke="none" /><text fill="#e1ed5e" style="font-size:6.75px; font-family:Arial;" text-anchor="middle"><textPath startOffset="22.20632615414155" xlink:href="#id39">March</textPath></text><path d="M 118.03404312379186 89.2402003453031 l 53.29818412274478 -31.79973449011587 a83.06383443217047,83.06383443217047 0 0,0 0.7220237798567254,1.2341726872221226 l -53.83766757707183 30.877582390539853" fill="red" stroke="none" /><path d="M 119.34039704204932 91.81776055985345 l 57.12945383075418 -24.169455741354156 a83.031742566476,83.031742566476 0 0,0 0.5455514178200893,1.321096031001645 l -57.53702693546046 23.18248513989921" fill="red" stroke="none" /><path d="M 120.96714384426684 98.82574320788733 l 62.16950857495698 -3.481779313800605 a83.26693009649391,83.26693009649391 0 0,0 0.06782841559165181,1.4317506496877628 l -62.22023059878212 2.4111175574898427" fill="red" stroke="none" /><line stroke="#e1ed5e" stroke-width="0.3" x1="184.98032266829074" x2="189.97916517819016" y1="98.17113171792111" y2="98.06355123074" /><path d="M 185.9800911702706 98.14961562048488 a86.0,86.0 0 0,1 -9.607161424134198,41.387399972396054" fill="none" id="id40" stroke="none" /><text fill="#e1ed5e" style="font-size:6.75px; font-family:Arial;" text-anchor="middle"><textPath startOffset="21.466115282336823" xlink:href="#id40">April</textPath></text><path d="M 120.5718875245553 104.21870165774334 l 60.44648049829598 12.395832282211744 a82.70440553639261,82.70440553639261 0 0,0 -0.2979956355540304,1.392136401453127 l -60.22415082401751 -13.434482503081039" fill="red" stroke="none" /><path d="M 120.49622156327973 104.57218783832717 l 59.332368752332215 13.2355485127351 a81.79070427454919,81.79070427454919 0 0,0 -0.31835837521634114,1.371479548219213 l -59.09574981118532 -14.254896718302879" fill="red" stroke="none" /><path d="M 119.67450827220406 107.3425965602758 l 58.874911537518116 21.97232667576569 a83.84137449242456,83.84137449242456 0 0,0 -0.5162461585054069,1.3477558168075865 l -58.4879710994192 -22.982506059406422" fill="red" stroke="none" /><path d="M 119.41010516605496 108.01547362559984 l 57.56390442993913 23.771223998911747 a83.27900275073135,83.27900275073135 0 0,0 -0.5585602773677865,1.3202714996588625 l -57.14619317137903 -24.758570024236775" fill="red" stroke="none" /><line stroke="#e1ed5e" stroke-width="0.3" x1="174.80103733775053" x2="179.2010983576182" y1="140.37084112569926" y2="142.7455964860345" /><path d="M 175.68104954172406 140.8457921977663 a86.0,86.0 0 0,1 -30.038265399797805,32.042727171017184" fill="none" id="id41" stroke="none" /><text fill="#e1ed5e" style="font-size:6.75px; font-family:Arial;" text-anchor="middle"><textPath startOffset="22.206326154141568" xlink:href="#id41">May</textPath></text><path d="M 117.14729908036423 112.12312394758627 l 50.670619420023186 35.82407916552562 a83.05542941972666,83.05542941972666 0 0,0 -0.8353802403032444,1.1602700893606315 l -50.046459387344335 -36.69098286033738" fill="red" stroke="none" /><path d="M 116.498646956653 112.99209946851258 l 49.495940869959 38.97629840553772 a84.0,84.0 0 0,0 -0.9043283517805842,1.1282886656869988 l -48.81769460612357 -39.822514904802965" fill="red" stroke="none" /><path d="M 116.27256486870786 113.27417163493432 l 47.81589063001221 39.00530397150788 a82.70715626773784,82.70715626773784 0 0,0 -0.9094006295071649,1.0954316415239782 l -47.13739400061151 -39.822596870145624" fill="red" stroke="none" /><path d="M 116.0416608686014 113.55231037782055 l 47.432386483510086 40.071812317355985 a83.09332838492774,83.09332838492774 0 0,0 -0.9324554875525356,1.0846563912952447 l -46.735588486386774 -40.88234580781276" fill="red" stroke="none" /><path d="M 115.80600337817218 113.82643327865902 l 46.90432480154038 41.02994930677063 a83.31751298956469,83.31751298956469 0 0,0 -0.9535536626834045,1.0713276485777785 l -46.19111228920864 -41.831251125089274" fill="red" stroke="none" /><line stroke="#e1ed5e" stroke-width="0.3" x1="143.8653032363475" x2="146.44561519142675" y1="172.8068346515853" y2="177.08958963109032" /><path d="M 144.38136562736335 173.6633856474863 a86.0,86.0 0 0,1 -40.68145358897372,12.25698825130547" fill="none" id="id42" stroke="none" /><text fill="#e1ed5e" style="font-size:6.75px; font-family:Arial;" text-anchor="middle"><textPath startOffset="21.466115282336833" xlink:href="#id42">June</textPath></text><line stroke="#e1ed5e" stroke-width="0.3" x1="102.19456741930631" x2="102.32365962044197" y1="184.97166512339345" y2="189.96999836594603" /><path d="M 102.22038585953345 185.97133177190398 a86.0,86.0 0 0,1 -42.740103519485714,-10.115201625700543" fill="none" id="id43" stroke="none" /><text fill="#e1ed5e" style="font-size:6.75px; font-family:Arial;" text-anchor="middle"><textPath startOffset="22.20632615414155" xlink:href="#id43">July</textPath></text><line stroke="#e1ed5e" stroke-width="0.3" x1="58.666819895761336" x2="56.23545636021788" y1="174.27360380694188" y2="178.64263932499728" /><path d="M 58.180547188652646 175.14741091055294 a86.0,86.0 0 0,1 -31.652253787137756,-30.449443065178592" fill="none" id="id44" stroke="none" /><text fill="#e1ed5e" style="font-size:6.75px; font-family:Arial;" text-anchor="middle"><textPath startOffset="22.20632615414155" xlink:href="#id44">August</textPath></text><line stroke="#e1ed5e" stroke-width="0.3" x1="26.63291911575756" x2="22.317208475507996" y1="142.92168965132927" y2="145.44649492493687" /><path d="M 25.769776987707644 143.4266507060508 a86.0,86.0 0 0,1 -11.730757126820373,-40.83630448921669" fill="none" id="id45" stroke="none" /><text fill="#e1ed5e" style="font-size:6.75px; font-family:Arial;" text-anchor="middle"><textPath startOffset="21.46611528233685" xlink:href="#id45">September</textPath></text><line stroke="#e1ed5e" stroke-width="0.3" x1="15.007084014347285" x2="10.007500721073583" y1="101.09737516637583" y2="101.16192664675087" /><path d="M 14.007167355692545 101.11028546245083 a86.0,86.0 0 0,1 10.666146001902534,-42.60595125391555" fill="none" id="id46" stroke="none" /><text fill="#e1ed5e" style="font-size:6.75px; font-family:Arial;" text-anchor="middle"><textPath startOffset="22.20632615414155" xlink:href="#id46">October</textPath></text><line stroke="#e1ed5e" stroke-width="0.3" x1="26.266209847984243" x2="21.928928074336255" y1="57.711370442889674" y2="55.22380399835377" /><path d="M 25.398753493254645 57.213857153982495 a86.0,86.0 0 0,1 29.58750427330803,-30.492523968695096" fill="none" id="id47" stroke="none" /><text fill="#e1ed5e" style="font-size:6.75px; font-family:Arial;" text-anchor="middle"><textPath startOffset="21.46611528233685" xlink:href="#id47">November</textPath></text><line stroke="#e1ed5e" stroke-width="0.3" x1="56.762969772571076" x2="54.21961505331055" y1="26.818313649435495" y2="22.513508569990535" /><path d="M 56.25429882871897 25.957352633546506 a86.0,86.0 0 0,1 42.265352541879196,-11.944610805530505" fill="none" id="id48" stroke="none" /><text fill="#e1ed5e" style="font-size:6.75px; font-family:Arial;" text-anchor="middle"><textPath startOffset="22.20632615414155" xlink:href="#id48">December</textPath></text></svg>